<svg xmlns="http://www.w3.org/2000/svg" xmlns:xlink="http://www.w3.org/1999/xlink" viewBox="0 0 1600 471"><defs><style>.cls-1{fill:url(#linear-gradient);}.cls-2,.cls-4{fill:none;stroke:#fff;}.cls-2{stroke-opacity:0.15;stroke-width:15px;}.cls-3{fill:#fff;fill-opacity:0.2;}.cls-4{stroke-opacity:0.6;stroke-width:8px;}</style><linearGradient id="linear-gradient" x1="728.31" y1="2670.74" x2="-211.8" y2="1730.77" gradientTransform="matrix(1, 0, 0, -1, 564, 2414)" gradientUnits="userSpaceOnUse"><stop offset="0" stop-color="#ff6a7c"/><stop offset="1" stop-color="#ff1531"/></linearGradient></defs><title>Asset 10</title><g id="Layer_2" data-name="Layer 2"><g id="Layer_1-2" data-name="Layer 1"><rect class="cls-1" width="1600" height="471"/><path class="cls-2" d="M9,210.94c72.15-18.17,230.79-47.23,288.09-18.17S419.26,335.9,444.53,389.31l504.55-12.58c-78.6-39.43-237.27-131.42-243.12-184S800.07,64.7,850.79,33.5l244.69,22.35c3.31,22.67,20,74.89,60.13,102.46s294.89-46.26,417.23-86.62L1588,441c-46.53-60.23-154.65-182-214.89-187.22S1133,321.47,1050.51,358.57"/><ellipse class="cls-3" cx="103.07" cy="134" rx="10.54" ry="9"/><ellipse class="cls-3" cx="562.23" cy="226" rx="10.54" ry="9"/><ellipse class="cls-3" cx="705.13" cy="361" rx="10.54" ry="9"/><ellipse class="cls-3" cx="989.75" cy="146" rx="10.54" ry="9"/><ellipse class="cls-3" cx="1397.36" cy="311" rx="10.54" ry="9"/><ellipse class="cls-3" cx="1579" cy="227" rx="10.54" ry="9"/><path class="cls-4" d="M301.71,361c0,8.82-8.61,17-20.6,17s-20.59-8.18-20.59-17,8.6-17,20.59-17S301.71,352.18,301.71,361Z"/><path class="cls-4" d="M54.48,281c0,8.82-8.6,17-20.6,17s-20.59-8.18-20.59-17,8.6-17,20.59-17S54.48,272.18,54.48,281Z"/><path class="cls-4" d="M468,111c0,8.82-8.61,17-20.6,17s-20.6-8.18-20.6-17,8.61-17,20.6-17S468,102.18,468,111Z"/><path class="cls-4" d="M1047.83,332c0,8.82-8.6,17-20.6,17s-20.59-8.18-20.59-17,8.6-17,20.59-17S1047.83,323.18,1047.83,332Z"/><path class="cls-4" d="M1504.64,182c0,8.82-8.61,17-20.6,17s-20.6-8.18-20.6-17,8.61-17,20.6-17S1504.64,173.18,1504.64,182Z"/></g></g></svg>