<svg xmlns="http://www.w3.org/2000/svg" xmlns:xlink="http://www.w3.org/1999/xlink" viewBox="0 0 300.31 181"><defs><style>.cls-1{fill:#98c3e8;}.cls-1,.cls-12{opacity:0.2;isolation:isolate;}.cls-2{fill:url(#linear-gradient);}.cls-3{fill:url(#linear-gradient-2);}.cls-4{fill:url(#linear-gradient-3);}.cls-5{fill:#6fcf97;}.cls-6{fill:#f2994a;}.cls-7{fill:url(#linear-gradient-4);}.cls-8{fill:url(#linear-gradient-5);}.cls-9{fill:url(#linear-gradient-6);}.cls-10{fill:url(#linear-gradient-7);}.cls-11{fill:url(#linear-gradient-8);}.cls-13{fill:url(#linear-gradient-9);}.cls-14{fill:url(#linear-gradient-10);}.cls-15{fill:url(#linear-gradient-11);}.cls-16{fill:#2e3192;}.cls-17{fill:#ff1d25;}.cls-18{fill:#fff;}</style><linearGradient id="linear-gradient" x1="-308.46" y1="987.26" x2="-308.46" y2="971.38" gradientTransform="matrix(1, 0, 0, -1, 564, 1130)" gradientUnits="userSpaceOnUse"><stop offset="0" stop-color="#6ceda0"/><stop offset="1" stop-color="#199d56"/></linearGradient><linearGradient id="linear-gradient-2" x1="-290.1" y1="981.39" x2="-305.33" y2="976.89" xlink:href="#linear-gradient"/><linearGradient id="linear-gradient-3" x1="-298.27" y1="987.31" x2="-307.81" y2="974.61" xlink:href="#linear-gradient"/><linearGradient id="linear-gradient-4" x1="-431.99" y1="1069" x2="-442.69" y2="1064.45" gradientTransform="matrix(1, 0, 0, -1, 564, 1130)" gradientUnits="userSpaceOnUse"><stop offset="0" stop-color="#fff8e1"/><stop offset="1" stop-color="#ffcc80"/></linearGradient><linearGradient id="linear-gradient-5" x1="-450.81" y1="1058.03" x2="-463.85" y2="1049.97" xlink:href="#linear-gradient-4"/><linearGradient id="linear-gradient-6" x1="-425.88" y1="1062.6" x2="-427.02" y2="1043.74" gradientTransform="matrix(1, 0, 0, -1, 564, 1130)" gradientUnits="userSpaceOnUse"><stop offset="0" stop-color="#98d0fc"/><stop offset="1" stop-color="#3481d7"/></linearGradient><linearGradient id="linear-gradient-7" x1="-395.54" y1="1058.78" x2="-394.74" y2="1045.95" xlink:href="#linear-gradient-4"/><linearGradient id="linear-gradient-8" x1="-520.23" y1="995.23" x2="-484.73" y2="981.23" gradientTransform="matrix(1, 0, 0, -1, 564, 1130)" gradientUnits="userSpaceOnUse"><stop offset="0.06" stop-color="#eb5757"/><stop offset="1" stop-color="#872727"/></linearGradient><linearGradient id="linear-gradient-9" x1="-442.76" y1="1050.2" x2="-416.91" y2="1019.83" xlink:href="#linear-gradient-6"/><linearGradient id="linear-gradient-10" x1="-502.27" y1="1014.57" x2="-471.27" y2="980.07" gradientTransform="matrix(1, 0, 0, -1, 564, 1130)" gradientUnits="userSpaceOnUse"><stop offset="0" stop-color="#eb5757"/><stop offset="1" stop-color="#872727"/></linearGradient><linearGradient id="linear-gradient-11" x1="-324.12" y1="1010.02" x2="-397.75" y2="1012.9" gradientTransform="matrix(1, 0, 0, -1, 564, 1130)" gradientUnits="userSpaceOnUse"><stop offset="0" stop-color="#fcf898"/><stop offset="1" stop-color="#d7bd34"/></linearGradient></defs><title>Asset 1</title><g id="Layer_2" data-name="Layer 2"><g id="Layer_1-2" data-name="Layer 1"><ellipse class="cls-1" cx="150.16" cy="171.26" rx="150.16" ry="9.74"/><path class="cls-2" d="M250.4,142.78c-3-.75,1.87,8.42,4.67,13.09,2.13,3.75,6.55,3.28,6.55.94S254.14,143.72,250.4,142.78Z"/><path class="cls-3" d="M272.4,143.7c-.13-3.09-7.54,4.17-11.23,8.19-3,3.1-1.28,7.2,1,6.54S272.57,147.55,272.4,143.7Z"/><path class="cls-4" d="M261.6,139.64c-2-2.4-3.56,7.85-4.13,13.28-.54,4.27,3.27,6.54,4.68,4.68S264,142.63,261.6,139.64Z"/><path class="cls-5" d="M51.67,168.8l1.41-5.15H48.87l-6.55,8.42Z"/><path class="cls-5" d="M23.62,172.07l3.74-3.27-3.28-2.34L13.8,172.07Z"/><path class="cls-6" d="M111.52,65.93l-2.8,6.55-1.4,1.87-4.68,1.4-.47-5.14,3.27-8Z"/><path class="cls-7" d="M125.55,68.74l1.4,1.87,3.75-1.87-1.88-3.28a43.58,43.58,0,0,0-5.61-7c-1.4-1.4-1.24-.47-1.4.47l2.81,3.74a5.32,5.32,0,0,0-1.41,1.87,3.06,3.06,0,0,0,.47,2.8A5.6,5.6,0,0,0,125.55,68.74Z"/><path class="cls-8" d="M105.91,80l2.34,3.27L112.46,80c-1.25-1.41-3.74-4.3-3.74-4.68v-2.8c-.94.31-2.29,1.32-3.74.93s-2.19-1.87-2.81-2.8a6.34,6.34,0,0,0-1.4.93c-1.53,1.57-1.1,3.71,0,5.61S105.91,80,105.91,80Z"/><path class="cls-9" d="M130.7,68.74,148,85.5l-9.36,2.41L127,70.61Z"/><path class="cls-10" d="M159.22,76.68c-1.5-3.36,4.05-8.26,7-10.28l12.63,15-6.08,8L168.1,99.6l-7.48-10.29,2.81-6.08A23.8,23.8,0,0,1,159.22,76.68Z"/><path class="cls-11" d="M27.36,168.33l-3.28-1.87,47.23-46.29h36.94l8,15.43-48.63,8.88Z"/><path class="cls-12" d="M114.5,135.5l-47,9-8,4.5,14-28Z"/><path class="cls-13" d="M127.89,110.82c-3,1.87-8.57,3.27-10.76,3.74l9.36,13.09,28.52-8L166.7,92.11,162,86c-2-.32-7.29-1.5-10.28-1.87-3.75-.47-22,5.61-25.25,5.61-2.62,0-10.45-6.55-14-9.82l-4.21,3.27c3.12,4.21,10.38,13,14.5,14.5,5.14,1.87,19.17-1.87,18.23,0S131.63,108.48,127.89,110.82Z"/><path class="cls-12" d="M146.5,99.5c-1.6,4-13.33,9.33-19,11.5,6-4,10.5-9.5,13.5-13C143.67,97,148.1,95.5,146.5,99.5Z"/><path class="cls-14" d="M53.08,163.65H48.87c4.36-17.61,14.21-52.83,18.7-52.83s34.91,2.49,49.57,3.74l7.94,10.29L104,134.5l-28.95-6.38Z"/><path class="cls-15" d="M114.33,169.27c-27.12,1.4-30.39-4.21-32.73-8.42-2.81-8.42,0-14,14-22.44S127,121.57,141,113.62s35.54-45.82,57.51-49.56S234,88.37,239.18,117.83s-10.76,46.29-16.37,46.29S141.45,167.86,114.33,169.27Z"/><path class="cls-16" d="M166.23,76.68c-3-1.12-1.24-7,0-9.82,1.54-5.14,11.69-14,18.7-15.43S201.3,58,201.3,63.12s0,7.95,6.55,11.69,7.94,13.56.93,17.77-6.08.94-16.36,4.68-15.9,21-20.11,13.56,2.81-7-1.4-12.16,6.08-13.09,5.61-16.83S170,78.09,166.23,76.68Z"/><rect class="cls-17" x="33.28" y="57.63" width="36.47" height="27.12"/><path class="cls-18" d="M47.58,70.44a12.24,12.24,0,0,0,5.35,5.35L54.71,74a.81.81,0,0,1,.83-.2,9.27,9.27,0,0,0,2.9.46.82.82,0,0,1,.81.82v2.83a.81.81,0,0,1-.81.81,13.8,13.8,0,0,1-13.8-13.8.82.82,0,0,1,.81-.81h2.84a.81.81,0,0,1,.81.81,9.23,9.23,0,0,0,.47,2.9.82.82,0,0,1-.21.83Z"/><rect class="cls-17" x="51.95" width="36.05" height="27"/><path class="cls-18" d="M77.11,7.3h-13a1.63,1.63,0,0,0-1.61,1.63v9.74a1.63,1.63,0,0,0,1.62,1.62h13a1.63,1.63,0,0,0,1.62-1.62V8.93A1.63,1.63,0,0,0,77.11,7.3Zm0,3.25-6.5,4.06-6.49-4.06V8.93L70.61,13l6.5-4.06Z"/><rect class="cls-17" x="124.18" width="36.47" height="27.12"/><path class="cls-18" d="M142,5.68a8.12,8.12,0,1,0,8.13,8.12A8.12,8.12,0,0,0,142,5.68Zm5.63,4.87h-2.4a12.64,12.64,0,0,0-1.12-2.89A6.5,6.5,0,0,1,147.66,10.55ZM142,7.34a11.49,11.49,0,0,1,1.55,3.21h-3.1A11.49,11.49,0,0,1,142,7.34Zm-6.28,8.08a6.66,6.66,0,0,1-.21-1.62,6.74,6.74,0,0,1,.21-1.63h2.74a14.71,14.71,0,0,0-.11,1.63,14.37,14.37,0,0,0,.11,1.62Zm.66,1.62h2.4a12.47,12.47,0,0,0,1.12,2.89A6.49,6.49,0,0,1,136.42,17Zm2.4-6.49h-2.4a6.49,6.49,0,0,1,3.52-2.89,12.64,12.64,0,0,0-1.12,2.89ZM142,20.26A11.55,11.55,0,0,1,140.49,17h3.1A11.55,11.55,0,0,1,142,20.26Zm1.9-4.84h-3.8A12.35,12.35,0,0,1,140,13.8a12.5,12.5,0,0,1,.13-1.63h3.8a12.5,12.5,0,0,1,.13,1.63A12.35,12.35,0,0,1,143.94,15.42Zm.2,4.51A12.47,12.47,0,0,0,145.26,17h2.4a6.5,6.5,0,0,1-3.52,2.89Zm1.44-4.51a14.37,14.37,0,0,0,.11-1.62,14.71,14.71,0,0,0-.11-1.63h2.74a6.74,6.74,0,0,1,.21,1.63,6.66,6.66,0,0,1-.21,1.62Z"/><path class="cls-6" d="M249.46,152.13c1.4-2.34,20.85-1.87,21.51,0s-.94,12.16-4.21,13.1-9.82,1.4-12.62,0S248.06,154.47,249.46,152.13Z"/></g></g></svg>