<svg xmlns="http://www.w3.org/2000/svg" viewBox="0 0 413.45 261"><defs><style>.cls-1{fill:#360f2c;}.cls-2{fill:#f7931e;}.cls-3{fill:#ffb76e;}.cls-4{fill:#20307a;}.cls-5{fill:#1a4ea0;}.cls-6{fill:#ffc891;}.cls-7{fill:#d33c42;}.cls-8{fill:#ff4d4d;}.cls-38,.cls-55,.cls-9{fill:#fff;}.cls-10{fill:#d5e7f0;}.cls-11{fill:#ff6161;}.cls-12{fill:#f79f39;}.cls-13{fill:#505b85;}.cls-14{fill:#cfd9fc;}.cls-15{fill:#93a0c9;}.cls-16{fill:#b3bfe6;}.cls-17{fill:#8490b5;}.cls-18{fill:#a4b2e0;}.cls-19{fill:#97a5d4;}.cls-20{fill:#8a9bd1;}.cls-21{fill:#6d7cad;}.cls-22{fill:#485380;}.cls-23{fill:#616ea1;}.cls-24{fill:#808fc2;}.cls-25{fill:#b5bfe0;}.cls-26{fill:#4a5475;}.cls-27{fill:#e37628;}.cls-28{fill:#db9916;}.cls-29{fill:#ff852d;}.cls-30{fill:#d6b798;}.cls-31{fill:#ffdab5;}.cls-32{fill:#a89581;}.cls-33{fill:#ff8f3d;}.cls-34{fill:#8a3174;}.cls-35{fill:#63b33a;}.cls-36,.cls-55{opacity:0.5;}.cls-36,.cls-37,.cls-38,.cls-54,.cls-55,.cls-60{isolation:isolate;}.cls-37,.cls-38{opacity:0.2;}.cls-39{fill:#c43333;}.cls-40{fill:#e24551;}.cls-41{fill:#4e850f;}.cls-42{fill:#599c25;}.cls-43{fill:#65a334;}.cls-44{fill:#ff983b;}.cls-45{fill:#d17c19;}.cls-46{fill:#f7ad56;}.cls-47{fill:#736357;}.cls-48{fill:#d9e6ff;}.cls-49{fill:#bdd3ff;}.cls-50{fill:#5075ba;}.cls-51{fill:#7793c4;}.cls-52{fill:#d68c49;}.cls-53{fill:#c48043;}.cls-54,.cls-60{opacity:0.3;}.cls-56{fill:#a7b000;}.cls-57{fill:#d1d13b;}.cls-58{fill:#202747;}.cls-59{fill:#ffe5c7;}.cls-60{fill:#383810;}.cls-61{fill:#2c9400;}.cls-62{fill:#298a00;}.cls-63{fill:#adcbff;}.cls-64{fill:#4d4d4d;}.cls-65{fill:#b8d1ff;}.cls-66{fill:#c9ddff;}.cls-67{fill:#7fa0db;}.cls-68{fill:#6292e6;}.cls-69{fill:#edf4ff;}.cls-70{fill:#e3edff;}.cls-71{fill:#e88a1c;}.cls-72{fill:#ff7c1f;}.cls-73{fill:#f7a648;}</style></defs><title>team</title><g id="Layer_2" data-name="Layer 2"><g id="Layer_1-2" data-name="Layer 1"><path class="cls-1" d="M214.31,14.9s.55,1.37-4.65,2.17S201,19.7,200.8,24.43s6.94,7.76,5.75,14-4.76,8.83-4.76,8.83,9.56,2.14,16.64-4.79,4.65-10.15,1.15-13.37-4.15-7.88-3-9S214.31,14.9,214.31,14.9Z"/><path class="cls-2" d="M217.83,20.34c1.34-.6,1.64-2.52.66-4.31s-2.85-2.76-4.19-2.16-1.64,2.52-.66,4.31S216.49,20.93,217.83,20.34Z"/><path class="cls-1" d="M251.84,238.79H238.11s-.81-3,1-4.51c.8-.62,2.75-1.32,6.27.29C248.48,236,252.35,236.41,251.84,238.79Z"/><path class="cls-3" d="M252.84,162.5c0,5.78-5.88,60.54-9.75,71.89-.31.91-3.64,1-3.74,0-1-9.09-4.53-51.79-5.89-67.54C232.32,153.61,252.83,156.27,252.84,162.5Z"/><path class="cls-4" d="M246.44,92.59c8.54,27.76,7.49,55,6.3,70.76-.8,10.42-17.21,15.07-19.84.92-6.57-35.37-17.05-40.16-18-54.87C214,94.54,244,84.73,246.44,92.59Z"/><path class="cls-4" d="M253,159.39l-1.13,31.78c-.23,6.73,1.65,10.59,1,12.46-1.37,3.68-6.47,2.2-9.68,3.31s-6.2.9-8.59-.67c-1.56-1-.17-12.15-.35-16.31s-1-23.89-1.32-25.69,1.68-7.34,9.07-8S253,159.39,253,159.39Z"/><path class="cls-1" d="M246.35,235a9.81,9.81,0,0,1-1.41-1c-.57-.5-1.44-1.06-2.27-.43s-1.93,1.6-2.53,1.53.39.81,2.67.92A5.08,5.08,0,0,0,246.35,235Z"/><path class="cls-5" d="M222,104.89c0,6.36,6,17.54,13.33,17.54s13.33-11.18,13.33-17.54-6-11.51-13.33-11.51S222,98.53,222,104.89Z"/><path class="cls-1" d="M226.39,238.79h-3.63c-3.39,0-8.45-2.42-8.45-2.42s.29-3,2.06-4.17a4.6,4.6,0,0,1,5.53,1.31C224,236.32,227.34,236.09,226.39,238.79Z"/><path class="cls-6" d="M245.05,166.1c-.64,4.08-18.09,56.55-24.33,67-.5.84-4.27.11-4.16-.87,1-9.08,6.82-51.05,8.87-66.74C227.16,152.33,246,159.93,245.05,166.1Z"/><path class="cls-5" d="M241.66,107.84c4.55,19.74,5,42.14,3.47,57.8-1.07,11.08-17.29,14.05-19.69-.13-6-35.48-15.06-38.75-16.26-53.44-.66-8,4.84-14,8.34-18.73C223.16,85.77,238.58,94.49,241.66,107.84Z"/><path class="cls-1" d="M222.57,234.29a7.31,7.31,0,0,1-.91-1.13c-.34-.56-.92-1.22-1.69-.7a14.45,14.45,0,0,1-2.64,1.31c-.32.1.52.73,2.28,1.12A3.67,3.67,0,0,0,222.57,234.29Z"/><path class="cls-5" d="M245.05,166.1c.24,7.64-7.28,23.08-9.42,29.38s-.67,9.19-1.87,10.79c-2.37,3.16-7.76.58-11.19.51-5.31-.12-6.43-1.55-7-4-.42-1.68,2.37-8.63,3.38-12.6s6.35-23,6.4-25.32c0-1.78,3.29-5.74,10.6-4.6S245,163.58,245.05,166.1Z"/><path class="cls-3" d="M254.9,76.82c14.49.09,36.68-3.25,41-5,.88-.35.62-2-.34-2.17-1.66-.21-23.93-.82-40.37-1.19C249.51,68.33,249.47,76.79,254.9,76.82Z"/><path class="cls-3" d="M222.21,38.19c-3.21,2.08-3.49,6.31-.78,9.65,9.28,11.45,24,24,30.7,28.25,3.84,2.41,8.78-1.41,6.4-5a314,314,0,0,0-23.83-30C230.32,36.23,224.83,36.49,222.21,38.19Z"/><path class="cls-3" d="M296.76,68.15c1.43-.43,3.08-.68,3.82-.91s2.83-.92,3.16-.53-3.15,1.73-3.15,1.89a8.09,8.09,0,0,0,2.83-.24c1.21-.27,4.4-1.35,4.92-.89s-1.94,3.28-4.95,4.44c-1.7.65-6.74.53-7.87,0C294.75,71.53,293.45,69.17,296.76,68.15Z"/><path class="cls-7" d="M234.33,40.16c4.1,3.38,11.53,13.61,14.21,15.4s5.48,4.14,3.74,6-2.69,2.37-3.31,4-3.24,6.31-6.7,5.8-20.22-22.08-20.9-22.87C215.53,41.86,222.64,30.5,234.33,40.16Z"/><path class="cls-8" d="M227,35.94c2.13.46,6.51,2.9,10.95,7.69,3,3.22,11.13,13.47,11.57,18.69.33,3.88-2.9,6.58-2.83,10s5.42,30.06,1.81,31.05c-11.58,3.15-38.38-1.39-35.56-5.82,3.55-5.59,7.62-10,8.42-14.58,1-5.49.06-14.12-2.82-22.32-3-8.57-7.66-19.66-4.59-22.73C216.07,35.75,222,34.86,227,35.94Z"/><path class="cls-9" d="M227.08,49.17l5.5-1.11-.85-3.42-5.5,1.1Z"/><path class="cls-10" d="M227.78,48.27l3.74-.75-.49-2-3.74.75Z"/><path class="cls-3" d="M225.29,21.35c1.53,10.83,4.85,17.34,3.41,17.89-1.13.43-3.61-.31-8.95-3.58-.88-.54-.24-19.81-.24-19.81S225,19.45,225.29,21.35Z"/><path class="cls-6" d="M205.51,83.82c6.72,14.23,20.58,34.72,24.43,38.34.77.73,2.41-.16,2.08-1.15-.56-1.71-10.4-23.76-17.74-40C211.73,75.35,203,78.49,205.51,83.82Z"/><path class="cls-6" d="M220.54,37c-3.79-1-7.69,1.32-9,5.28C207,55.82,204.75,74,205.1,81.34c.2,4.21,6.56,5.45,8.26,1.59a288.79,288.79,0,0,0,12.1-35.2C227.18,41.6,223.63,37.82,220.54,37Z"/><path class="cls-6" d="M232.32,118.83c1.49.14,3.11.54,3.89.61s3,.24,3.12.72-3.67.37-3.74.53a7.71,7.71,0,0,0,2.68.84c1.22.22,4.62.44,4.88,1s-3.29,2.25-6.56,2.17c-1.85,0-6.36-2.07-7.15-3C228.92,121.13,228.84,118.5,232.32,118.83Z"/><path class="cls-11" d="M225.56,47.74c.85-2.89,1.52-9.31-5.33-11.05-7.18-1.82-9.79,6.14-10.06,6.86-1.19,3.24-4.33,11.82-5.11,14.67s-4.56,7-2.8,8.75,3.16,2.63,6.86,3.51,9,3.28,10.15.44,2.74-11.09,3.8-13.14S224.82,50.23,225.56,47.74Z"/><path class="cls-6" d="M240.28,16.74c-.19,4.77-3.47,16.66-11.31,16.14-11-.74-7.7-16.77-7.7-16.77s6.75-5,13.3-5.49C239.92,10.26,240.37,14.74,240.28,16.74Z"/><path class="cls-1" d="M242.11,11.14c1.47,4.46-.43,5.78-3,6-3.84.32-6.58-2.59-13.13-.72-3.76,1.08-4.92-.58-5.85,0s0,3.3-.52,4.38-4.48-2.11-5.63-5.66-.87-10.28,4.8-13.08c4.86-2.39,11.66-3,16.82-.45C241.65,4.66,241.29,8.66,242.11,11.14Z"/><path class="cls-6" d="M218.46,17.32c.17,1.5.64,3,2.13,3.14,1.29.1,1.66-3.7.92-4.65C220,13.91,218.23,15.27,218.46,17.32Z"/><path class="cls-2" d="M241.68,9.4s-.58,1-11.67.5S214.22,7,214.22,7a3.85,3.85,0,0,0-.58,1.92c-.06,1.22,10.64,4.13,12,4.31s16.73-.82,16.77-1S241.68,9.4,241.68,9.4Z"/><path class="cls-12" d="M249.13,15.85s-1-1.71-4.45-2.21-8.11.5-10.13.5-8.89-.89-8.89-.89,2.35-1.16,9.39-1.32c3-.08,7-.79,10.59.49C249.41,13.77,249.13,15.85,249.13,15.85Z"/><path class="cls-13" d="M154,109.08h-4v21.24h4Z"/><path class="cls-14" d="M407.75,140.87H13.62a5.44,5.44,0,0,1-5.7-5.13v-.28a5.44,5.44,0,0,1,5.7-5.14H407.74a5.45,5.45,0,0,1,5.71,5.14v.28A5.44,5.44,0,0,1,407.75,140.87Z"/><path class="cls-15" d="M401.53,140.87H19.84V261H401.53Z"/><path class="cls-16" d="M403.28,249.32H18.09V261H403.28Z"/><path class="cls-17" d="M401.53,140.87H19.84v8.94H401.53Z"/><path class="cls-18" d="M329,107.51H265.22a3.63,3.63,0,0,0-3.81,3.43v19.38h71.35V110.94A3.64,3.64,0,0,0,329,107.51Z"/><path class="cls-19" d="M285.13,90.67h-4.28v16.84h4.28Z"/><path class="cls-18" d="M299.22,81.43H266.75v9.24h32.47Z"/><path class="cls-20" d="M296.92,88.59V83.51H269.06v5.08Z"/><path class="cls-21" d="M405.2,130.9H117.35a.59.59,0,1,1,0-1.17H405.2a.63.63,0,0,1,.66.59A.62.62,0,0,1,405.2,130.9Z"/><path class="cls-21" d="M7.92,136a.62.62,0,0,1-.65-.58c0-3.16,2.85-5.73,6.36-5.73h88.14a.59.59,0,1,1,0,1.17H13.63a4.84,4.84,0,0,0-5.06,4.56A.62.62,0,0,1,7.92,136Z"/><path class="cls-21" d="M393.75,239.18a.62.62,0,0,1-.65-.59V145H26.68a.59.59,0,1,1,0-1.18H394.4v94.78A.62.62,0,0,1,393.75,239.18Z"/><path class="cls-21" d="M403.28,249.91H26.68a.59.59,0,1,1,0-1.17h376.6a.59.59,0,1,1,0,1.17Z"/><path class="cls-21" d="M299.22,90.88H266.75a.23.23,0,0,1-.23-.21.22.22,0,0,1,.23-.21h32.47a.22.22,0,0,1,.23.21A.22.22,0,0,1,299.22,90.88Z"/><path class="cls-21" d="M280.85,107.72a.22.22,0,0,1-.23-.21V90.67a.22.22,0,0,1,.23-.21.23.23,0,0,1,.23.21v16.84A.22.22,0,0,1,280.85,107.72Z"/><path class="cls-21" d="M319.51,107.93H270.07a.42.42,0,1,1,0-.84h49.44a.42.42,0,1,1,0,.84Z"/><path class="cls-21" d="M297.15,88.8H268.83V86.93a.22.22,0,0,1,.23-.21.22.22,0,0,1,.23.21v1.45h27.39V83.71H269.06a.22.22,0,0,1-.23-.2.22.22,0,0,1,.23-.21h28.09Z"/><path class="cls-22" d="M192,115.76H128.43a2.17,2.17,0,0,1-2.21-1.72l-6.74-42.29a1.8,1.8,0,0,1,1.91-2h63.27Z"/><path class="cls-23" d="M194.47,115.76H129l-7.34-46h65.5Z"/><path class="cls-24" d="M132.34,112.83l-6.4-40.12h57.84l6.39,40.12Z"/><path class="cls-21" d="M131.58,78.06,131.09,75h48.26l.49,3.09Z"/><path class="cls-21" d="M166.52,107.54H136.28l.5,3.09H167Z"/><path class="cls-21" d="M170.18,107.54l.49,3.09H185l-.5-3.09Z"/><path class="cls-25" d="M160.79,83.11h-28.4l-.24-1.48h28.41Z"/><path class="cls-25" d="M180.65,83.11h-9.48l-.24-1.48h9.48Z"/><path class="cls-25" d="M156.62,86.91H133l-.23-1.49h23.62Z"/><path class="cls-25" d="M181.25,86.91h-9.48l-.23-1.49H181Z"/><path class="cls-25" d="M155.21,90.4H133.55l-.24-1.48H155Z"/><path class="cls-25" d="M181.81,90.4h-9.48l-.23-1.48h9.48Z"/><path class="cls-25" d="M160.94,94.2H134.16l-.24-1.49h26.79Z"/><path class="cls-25" d="M182.42,94.2h-9.48l-.24-1.49h9.48Z"/><path class="cls-25" d="M155.58,98.38H134.82l-.23-1.48h20.75Z"/><path class="cls-25" d="M183.08,98.38H173.6l-.23-1.48h9.48Z"/><path class="cls-25" d="M161.68,102.18H135.43l-.24-1.49h26.25Z"/><path class="cls-25" d="M183.69,102.18h-9.48l-.24-1.49h9.48Z"/><path class="cls-26" d="M190.17,113.12H132.34a.29.29,0,1,1,0-.58H189.8L183.49,73H126.31l1.49,9.33a.29.29,0,0,1-.27.33.31.31,0,0,1-.37-.25l-1.54-9.66a.27.27,0,0,1,.07-.24.36.36,0,0,1,.25-.1h57.84a.32.32,0,0,1,.32.25l6.4,40.13a.32.32,0,0,1-.08.24A.35.35,0,0,1,190.17,113.12Z"/><path class="cls-1" d="M349.09,261h13.7s.81-3-1.05-4.5c-.79-.62-2.75-1.32-6.25.28C352.44,258.18,348.57,258.62,349.09,261Z"/><path class="cls-3" d="M343.14,200.53c.37,4.45,9.75,47,14.27,56,.37.73,3.74.75,3.77,0,1.48-31.9.83-39.28,1.09-51.14C362.5,195.37,342.73,195.74,343.14,200.53Z"/><path class="cls-3" d="M353.08,144.45c-9.72,22.57-10.24,43.82-9.95,55.9.2,8,18.15,13.86,19.11,4.15,2.87-29.11,18.55-39,20.23-50.55S355.84,138.06,353.08,144.45Z"/><path class="cls-1" d="M374.51,261H388.2s.81-3-1-4.5c-.8-.62-2.75-1.32-6.25.28C377.86,258.18,374,258.62,374.51,261Z"/><path class="cls-6" d="M362.56,202.2c.84,4.39,14.63,46,20.08,54.57.43.7,3.8.43,3.75-.31-1.87-31.88-3.28-39.17-4.27-51C381.29,195.41,361.65,197.46,362.56,202.2Z"/><path class="cls-6" d="M365.38,143.1C358.06,166.4,361,190,362.53,202c1,8,19.52,12.26,19.45,2.52-.19-29.23,14.84-40.41,14.85-52.05C396.83,126.89,367.45,136.51,365.38,143.1Z"/><path class="cls-27" d="M345,125.69c-17.3-2.13-40.26-7.48-46.07-10.09-1.54-.7.28-6.18,1.42-6.09,2,.16,26.89,4.66,46,7.9C353,118.54,351.36,126.47,345,125.69Z"/><path class="cls-27" d="M358.69,78c3.88.62,6.16,4.31,5.34,8.37-2.82,13.9-9.94,31-14,37.37-2.29,3.66-8.57,2.16-8.14-2a281.16,281.16,0,0,1,7-36.23C350.45,79.39,355.51,77.48,358.69,78Z"/><path class="cls-3" d="M300.74,110.68c.11-1.27-.13-2.24-4.45-1.89-3.46.29-5.71-1.45-6.46-.49-1.21,1.56,3.86,4.87,5.65,5C299.55,113.6,300.64,111.86,300.74,110.68Z"/><path class="cls-28" d="M294.72,109.14c0,.32-.5.58-1.12.58s-1.11-.26-1.11-.58.49-.58,1.11-.58S294.72,108.82,294.72,109.14Z"/><path class="cls-28" d="M297.33,109c-.07.26-.61.36-1.21.23s-1-.45-.95-.71.61-.35,1.21-.22S297.4,108.75,297.33,109Z"/><path class="cls-28" d="M297.4,109.83c0,.32-.41.64-1,.71s-1.14-.12-1.19-.44.41-.64,1-.71S297.35,109.52,297.4,109.83Z"/><path class="cls-28" d="M296,109.13c.11.25-.26.62-.83.82s-1.12.18-1.23-.06.26-.61.83-.82S295.9,108.89,296,109.13Z"/><path class="cls-4" d="M351.93,143.71s-9.69,18.09-11.44,52c-.71,13.84.39,37.94,1.71,38.52,8,3.54,12.95,1.18,16.43,2.36,4.53,1.54,10.75.7,15.83-1.36s15.87-1.16,18-6.17c1.5-3.49-2.24-25.1-2.1-39.59s8.92-26.73,7.87-37-5.15-13.91-5.15-13.91Z"/><path class="cls-29" d="M354.73,76.71c-1.76,1.16-5,4.72-7.35,10.57-1.57,3.94-6.33,15.88-4.87,20.94,1.63,5.61,6.26,7.88,7.49,11.09s-5,23.79,2.69,26.08c6.86,2,43.59,4.12,42.72-5.91C392.72,108.34,374.25,63.8,354.73,76.71Z"/><path class="cls-27" d="M393,139.32a1.46,1.46,0,0,0-1.34-.7c-.92,0-1.12.65-1.65,1.16l-.21.42a1.72,1.72,0,0,1-2.17.09,7.22,7.22,0,0,0-1.54-.63,1.84,1.84,0,0,0-1.72.61,8.3,8.3,0,0,0-.41.78c-.76,1.16-1.36,1-2.51.55a5.44,5.44,0,0,0-2.64-.8,2.73,2.73,0,0,0-1.78,1c-1.51,1.5-2.47.12-3.93-.45a2.33,2.33,0,0,0-2.29.14c-.27.17-.41.45-.64.64-1.15.93-2.17.35-3.21-.23a2.58,2.58,0,0,0-2.26-.45c-1.21.5-.5,1.75-2.64,1-.87-.31-1.24-1.11-2.33-1-1.42.14-1.3,1.48-3.21.63-.78-.34-1.13-1.14-2.14-1a1.35,1.35,0,0,0-1.26,1.09c-.13.61.9.87,1,.26s2.39,1,2.83,1.08c.82.2,1.07-.11,1.73-.37,1.17-.46,1.48-.72,2.59,0a4.42,4.42,0,0,0,.88.54,2,2,0,0,0,1.66,0c.75-.34.7-1,1.56-1.15,1.12-.21,2,.95,3.14,1.12a2.66,2.66,0,0,0,1.71-.27c.28-.17.43-.43.68-.61a2.34,2.34,0,0,1,2.82.07c1.38.88,2.58,1.05,3.77-.1.62-.6.73-1.17,2.11-.92a9.29,9.29,0,0,1,1.68.75,3.7,3.7,0,0,0,2.05.32c.71-.14.87-.48,1.34-.93s-.5-1.77,1.95-1.14c.44.12.91.56,1.36.72a2.3,2.3,0,0,0,1.82,0c.43-.21,1.88-2.34,2.24-1.82S393.34,139.84,393,139.32Z"/><path class="cls-27" d="M391.3,135.14a1.58,1.58,0,0,0-1.64,0c-.28.16-.4.42-.63.59-1.33,1-1.8.5-2.82-.1-1.76-1-2.38-.24-3.65.75s-2-.21-3.24-.26c-.87,0-1.36.48-2.05.85-2.07,1.11-3.28-1.13-5.32-.5-1.12.35-1.49,1.41-2.79.84-.75-.34-1.25-1-2.09-1.22a2.79,2.79,0,0,0-2,.32c-1.16.43.16,1.29-2.68.53-.51-.14-.94-.53-1.46-.68a2.4,2.4,0,0,0-2.15.24c-.36.24-.54.71-.91.93-.91.53-1.93-.08-2.75-.35-1.34-.44-3-.44-3.37,1.08-.15.61.88.87,1,.26.36-1.48,3.09.15,4,.24a2.41,2.41,0,0,0,1.54-.31c.36-.22.53-.6.85-.82,1.34-.87,2.22.12,3.23.49a2.68,2.68,0,0,0,2,0c1-.39,1.78-1.21,2.93-.76.64.25,1.09.83,1.75,1.07,1.86.67,2.86-1.31,4.74-.7,1.35.44,2.24,1.1,3.65.36.36-.18.65-.53,1-.67a2.83,2.83,0,0,1,2.19.34,2.24,2.24,0,0,0,1.59.14c.61-.2.85-.67,1.3-1,1.32-1.09,2.35.09,3.46.51a2.29,2.29,0,0,0,1.74.09c.49-.2,1.51-1.68,2-1.43S391.9,135.45,391.3,135.14Z"/><path class="cls-27" d="M391.06,128.61a1.45,1.45,0,0,0-1.34-.67c-.9.06-1.09.69-1.59,1.21-.07.14-.13.28-.19.42a1.68,1.68,0,0,1-2.14.14,7.3,7.3,0,0,0-1.54-.58,1.78,1.78,0,0,0-1.68.65,5.69,5.69,0,0,0-.38.79c-.71,1.18-1.31,1.09-2.45.61a5.43,5.43,0,0,0-2.64-.73,2.69,2.69,0,0,0-1.73,1.06c-1.43,1.53-2.42.19-3.89-.35a2.26,2.26,0,0,0-2.25.2c-.25.18-.38.46-.61.65-1.11,1-2.13.41-3.17-.14a2.52,2.52,0,0,0-2.25-.39c-1.17.53-.43,1.76-2.57,1.06-.87-.28-1.27-1.07-2.33-.94-1.4.18-1.24,1.52-3.15.72-.77-.32-1.15-1.11-2.14-1a1.32,1.32,0,0,0-1.22,1.12c-.1.62.93.85,1,.23s2.38.91,2.82,1c.81.18,1-.14,1.7-.41,1.14-.49,1.43-.76,2.55-.05a4.61,4.61,0,0,0,.89.52,2,2,0,0,0,1.64,0c.72-.37.65-1,1.5-1.19,1.1-.24,2,.9,3.13,1a2.57,2.57,0,0,0,1.68-.31c.27-.18.41-.44.65-.63a2.28,2.28,0,0,1,2.79,0c1.38.84,2.57,1,3.71-.2.59-.61.69-1.19,2.05-1a9.47,9.47,0,0,1,1.68.7,3.67,3.67,0,0,0,2,.28c.7-.17.84-.51,1.29-1s-.54-1.76,1.89-1.19c.44.11.92.53,1.36.69a2.3,2.3,0,0,0,1.8,0c.42-.22,1.77-2.39,2.15-1.88S391.44,129.13,391.06,128.61Z"/><path class="cls-27" d="M389.36,123.93a1.43,1.43,0,0,0-1.55.06c-.26.16-.36.43-.58.6-1.22,1-1.67.54-2.66,0-1.69-1-2.25-.18-3.42.84s-1.92-.17-3.06-.18c-.82,0-1.27.51-1.91.9-1.92,1.16-3.13-1.05-5-.37-1,.38-1.36,1.44-2.6.91-.73-.32-1.22-1-2-1.17a2.52,2.52,0,0,0-1.83.37c-1.08.46.19,1.29-2.52.59-.48-.12-.9-.5-1.39-.64a2.13,2.13,0,0,0-2,.29c-.34.25-.49.72-.83,1-.84.55-1.82,0-2.61-.28-1.28-.41-2.85-.36-3.15,1.16-.11.61.87.85,1,.23.29-1.48,2.92.08,3.76.15a2.18,2.18,0,0,0,1.45-.35c.33-.22.47-.61.77-.83,1.24-.91,2.09.06,3.06.4a2.4,2.4,0,0,0,1.86,0c.91-.41,1.64-1.25,2.74-.82.61.23,1.05.8,1.69,1,1.76.63,2.65-1.38,4.44-.81,1.29.41,2.15,1,3.46.27.33-.19.6-.54.94-.69a2.54,2.54,0,0,1,2.07.29,2,2,0,0,0,1.51.09c.57-.21.77-.69,1.19-1.07,1.21-1.12,2.22,0,3.28.43a2,2,0,0,0,1.64,0c.46-.21,1.37-1.72,1.84-1.47S389.93,124.23,389.36,123.93Z"/><path class="cls-27" d="M388,116.42a1.33,1.33,0,0,0-1.27-.64c-.85.06-1,.69-1.47,1.22l-.18.42a1.49,1.49,0,0,1-2,.17,6.81,6.81,0,0,0-1.46-.57,1.64,1.64,0,0,0-1.57.67,6.19,6.19,0,0,0-.34.8c-.64,1.19-1.21,1.1-2.3.64a4.88,4.88,0,0,0-2.49-.7,2.52,2.52,0,0,0-1.6,1.07c-1.31,1.56-2.27.22-3.66-.3a2,2,0,0,0-2.11.23c-.24.19-.35.46-.57.66-1,1-2,.43-3-.1a2.29,2.29,0,0,0-2.12-.37c-1.09.54-.37,1.77-2.39,1.1-.82-.27-1.21-1.06-2.21-.91-1.31.19-1.14,1.53-2.95.76-.73-.32-1.09-1.11-2-.95a1.27,1.27,0,0,0-1.11,1.14c-.09.61.88.83,1,.22s2.26.88,2.68,1c.76.17,1-.15,1.58-.44,1.06-.5,1.33-.77,2.4-.07a5.08,5.08,0,0,0,.84.51,1.74,1.74,0,0,0,1.54,0c.68-.37.6-1,1.39-1.21,1-.25,1.88.88,3,1a2.32,2.32,0,0,0,1.57-.34c.26-.17.38-.44.6-.63a2.05,2.05,0,0,1,2.62,0c1.32.82,2.44,1,3.49-.24.54-.62.62-1.2,1.91-1a9.22,9.22,0,0,1,1.59.69,3.25,3.25,0,0,0,1.92.25c.65-.17.78-.52,1.2-1,.54-.61-.55-1.75,1.74-1.21.42.1.88.52,1.3.67a2,2,0,0,0,1.69,0c.39-.23,1.62-2.41,2-1.9S388.4,116.94,388,116.42Z"/><path class="cls-27" d="M386.28,112.32a1.34,1.34,0,0,0-1.52.08c-.25.16-.35.43-.55.61-1.19,1-1.64.56-2.62,0-1.68-1-2.22-.15-3.35.89s-1.89-.14-3-.14c-.81,0-1.24.53-1.86.93-1.86,1.19-3.1-1-5-.3-1,.39-1.31,1.46-2.54.94-.72-.3-1.21-1-2-1.13a2.45,2.45,0,0,0-1.8.39c-1.05.47.21,1.28-2.46.63-.48-.12-.9-.49-1.39-.63a2.07,2.07,0,0,0-2,.32c-.33.26-.47.74-.8,1-.81.56-1.79,0-2.57-.24-1.26-.39-2.81-.33-3.07,1.2-.11.61.87.83,1,.22.26-1.49,2.87,0,3.7.08a2.1,2.1,0,0,0,1.42-.36c.32-.23.45-.62.74-.85,1.2-.92,2.06,0,3,.36a2.34,2.34,0,0,0,1.82,0c.89-.43,1.6-1.28,2.68-.87.61.23,1,.79,1.68,1,1.75.6,2.58-1.42,4.35-.88,1.28.39,2.13,1,3.41.22.32-.19.57-.55.91-.7a2.46,2.46,0,0,1,2.05.25,2,2,0,0,0,1.48.08c.55-.23.74-.7,1.15-1.09,1.16-1.14,2.18,0,3.23.38a2,2,0,0,0,1.61,0c.44-.22,1.32-1.74,1.78-1.5S386.85,112.61,386.28,112.32Z"/><path class="cls-27" d="M385.73,105.8a1.32,1.32,0,0,0-1.28-.61c-.83.08-1,.72-1.42,1.26l-.15.43a1.47,1.47,0,0,1-2,.22,6.19,6.19,0,0,0-1.46-.52,1.56,1.56,0,0,0-1.52.71,6.58,6.58,0,0,0-.31.8c-.6,1.21-1.17,1.14-2.25.71a4.64,4.64,0,0,0-2.48-.63,2.42,2.42,0,0,0-1.55,1.11c-1.25,1.59-2.24.28-3.62-.21a2,2,0,0,0-2.07.29,7,7,0,0,0-.54.68c-1,1-1.95.48-2.94,0a2.19,2.19,0,0,0-2.1-.31c-1.07.57-.32,1.78-2.33,1.16-.82-.25-1.23-1-2.21-.85-1.29.23-1.08,1.56-2.89.84-.73-.3-1.11-1.08-2-.9a1.25,1.25,0,0,0-1.06,1.17c-.07.62.89.81,1,.19s2.26.82,2.67.9c.77.15,1-.18,1.56-.48,1-.53,1.29-.81,2.36-.14a4.47,4.47,0,0,0,.85.49,1.76,1.76,0,0,0,1.52,0c.65-.4.56-1,1.33-1.25,1-.28,1.89.82,3,.92a2.23,2.23,0,0,0,1.53-.38c.24-.18.36-.46.57-.65a2,2,0,0,1,2.59-.1c1.32.78,2.44.88,3.43-.34.51-.64.58-1.21,1.85-1.06a8.8,8.8,0,0,1,1.6.65,3.11,3.11,0,0,0,1.9.19c.64-.18.75-.53,1.15-1s-.6-1.73,1.68-1.26c.42.09.88.5,1.3.64a2,2,0,0,0,1.67-.08c.38-.24,1.52-2.46,1.9-2S386.11,106.3,385.73,105.8Z"/><path class="cls-27" d="M383.92,101.19a1.23,1.23,0,0,0-1.43.12c-.23.17-.32.44-.51.62-1.08,1.06-1.52.61-2.47.07-1.61-.92-2.09-.1-3.12,1s-1.79-.1-2.85-.07c-.76,0-1.15.56-1.72,1-1.72,1.23-2.95-.93-4.68-.18-.95.42-1.19,1.49-2.37,1-.68-.29-1.18-.92-1.92-1.09a2.19,2.19,0,0,0-1.69.43c-1,.5.24,1.28-2.3.69-.45-.11-.86-.47-1.32-.59a1.85,1.85,0,0,0-1.85.36c-.3.27-.42.75-.73,1-.75.58-1.69,0-2.43-.18-1.2-.36-2.65-.26-2.86,1.27-.07.62.85.81.93.2.19-1.49,2.71,0,3.49,0a1.94,1.94,0,0,0,1.33-.4c.29-.24.4-.63.67-.87,1.1-.94,1.94,0,2.86.3a2.1,2.1,0,0,0,1.72-.09c.82-.45,1.46-1.32,2.5-.93.58.21,1,.76,1.61,1,1.67.56,2.38-1.48,4.08-1,1.22.35,2,1,3.22.14.29-.21.52-.57.84-.73.7-.36,1.29,0,1.93.21a1.79,1.79,0,0,0,1.4,0c.52-.24.68-.72,1.05-1.12,1.06-1.16,2.06,0,3.06.31a1.82,1.82,0,0,0,1.53,0c.4-.23,1.18-1.77,1.63-1.55S384.46,101.46,383.92,101.19Z"/><path class="cls-27" d="M375.19,84.12a.9.9,0,0,0-1.19.18c-.18.18-.22.46-.36.65-.81,1.1-1.22.67-2.07.18-1.44-.84-1.76,0-2.52,1.12s-1.51,0-2.39.07c-.64.05-.91.61-1.36,1.05-1.31,1.31-2.56-.78-3.94,0-.75.45-.85,1.54-1.88,1.11-.6-.25-1.08-.86-1.73-1s-.89.18-1.37.51c-.77.54.33,1.27-1.85.8-.39-.08-.77-.42-1.17-.52a1.34,1.34,0,0,0-1.52.45c-.22.28-.28.76-.51,1-.57.61-1.41.12-2.05-.07-1-.3-2.26-.13-2.27,1.41,0,.62.79.77.79.15,0-1.49,2.27-.16,2.93-.17a1.33,1.33,0,0,0,1.07-.47c.23-.24.28-.65.48-.89.83-1,1.63-.11,2.43.15a1.48,1.48,0,0,0,1.43-.17c.65-.48,1.09-1.37,2-1,.51.19.93.71,1.45.88,1.46.48,1.85-1.59,3.32-1.17,1.06.29,1.81.86,2.71,0,.23-.21.38-.59.63-.76.56-.39,1.09-.09,1.65.11a1.24,1.24,0,0,0,1.17,0c.41-.26.5-.74.77-1.16.78-1.21,1.72-.15,2.6.16a1.27,1.27,0,0,0,1.28-.1c.32-.25.81-1.81,1.21-1.61S375.67,84.36,375.19,84.12Z"/><path class="cls-27" d="M380.32,93.76a1.33,1.33,0,0,0-1.33-.5c-.83.16-.9.8-1.28,1.37l-.12.45a1.44,1.44,0,0,1-1.93.38,6.6,6.6,0,0,0-1.51-.4,1.54,1.54,0,0,0-1.45.84,6.23,6.23,0,0,0-.22.82c-.48,1.26-1,1.23-2.16.89a4.88,4.88,0,0,0-2.54-.42,2.36,2.36,0,0,0-1.42,1.24c-1.08,1.69-2.2.47-3.63.1a2,2,0,0,0-2,.46,7.94,7.94,0,0,0-.46.72c-.87,1.07-1.89.65-2.93.22a2.22,2.22,0,0,0-2.13-.13c-1,.66-.13,1.79-2.2,1.35-.84-.18-1.32-.92-2.28-.67-1.25.34-.91,1.65-2.78,1.08-.76-.23-1.23-1-2.12-.72a1.23,1.23,0,0,0-.94,1.26c0,.61,1,.73,1,.1s2.33.63,2.75.68c.78.08.95-.26,1.5-.61,1-.61,1.2-.91,2.33-.34a4.33,4.33,0,0,0,.9.42,1.74,1.74,0,0,0,1.51-.18c.6-.45.44-1.08,1.19-1.36,1-.36,2,.66,3,.67a2.18,2.18,0,0,0,1.49-.51,8,8,0,0,0,.5-.69,2,2,0,0,1,2.56-.32c1.4.67,2.52.67,3.38-.62.45-.68.45-1.26,1.74-1.21a8.47,8.47,0,0,1,1.65.51,3.19,3.19,0,0,0,1.91,0c.62-.24.7-.6,1-1.11s-.76-1.67,1.55-1.39c.43,0,.93.42,1.36.52a2,2,0,0,0,1.65-.22c.35-.27,1.27-2.57,1.69-2.11S380.75,94.23,380.32,93.76Z"/><path class="cls-27" d="M378.91,89.31a1.24,1.24,0,0,0-1.42.24c-.2.19-.26.47-.43.66-1,1.15-1.46.73-2.45.28-1.7-.79-2.09.08-3,1.22s-1.78.06-2.83.18c-.76.08-1.09.65-1.62,1.11-1.58,1.36-3-.68-4.68.21-.9.49-1,1.58-2.24,1.2-.72-.23-1.27-.82-2-.93a2.14,2.14,0,0,0-1.63.58c-.93.57.37,1.25-2.22.88-.46-.07-.9-.4-1.38-.48a1.85,1.85,0,0,0-1.81.52c-.27.29-.34.78-.62,1-.69.64-1.68.18-2.43,0-1.24-.26-2.68,0-2.72,1.51,0,.62.93.74.94.12,0-1.5,2.7-.26,3.48-.3a1.85,1.85,0,0,0,1.28-.51c.27-.26.34-.66.58-.91,1-1,1.93-.18,2.87,0a2.06,2.06,0,0,0,1.7-.23c.78-.51,1.32-1.42,2.39-1.13.6.16,1.09.67,1.71.82,1.72.42,2.22-1.67,4-1.31,1.24.25,2.13.79,3.21-.13.28-.23.47-.61.76-.8.67-.41,1.29-.13,1.95.05a1.72,1.72,0,0,0,1.39-.08c.5-.28.61-.77.93-1.2.94-1.25,2.05-.23,3.09,0a1.74,1.74,0,0,0,1.51-.15c.38-.26,1-1.86,1.46-1.67S379.48,89.54,378.91,89.31Z"/><path class="cls-30" d="M351.59,74a12,12,0,0,0-1.6,3.25c-.2,1.21.83,4,1,4.88a23.31,23.31,0,0,1,.16,2.48A23.78,23.78,0,0,0,353.79,81C354.23,79.9,351.59,74,351.59,74Z"/><path class="cls-3" d="M347.1,67.28c4.38,10.16,3.86,13,5.48,14.57,1.79,1.76,7.76-5.89,6.3-7.88-2.14-2.93-8.3-14.24-8.3-14.24S346.34,65.5,347.1,67.28Z"/><path class="cls-31" d="M351,85.13s1.35-4.88,3.4-7.52,2.52-6.63,1.86-7.69,1.24-1.53,2.76-1.32,3.16,3.16,5.21,3.79,3.18,2.09,3.05,2.73-6.44.91-10.48,5S351,85.13,351,85.13Z"/><path class="cls-31" d="M351.37,84.48a10.52,10.52,0,0,0-2.92,2.25c-.84,1.15-2.36,3.6-2.36,3.6a7.46,7.46,0,0,0,3.64-2.2A6.63,6.63,0,0,0,351.37,84.48Z"/><path class="cls-31" d="M351.25,84.5a10.26,10.26,0,0,0-.9,3.91c.17,1.46.8,4.34.8,4.34a8.11,8.11,0,0,0,1.66-4.49A5.23,5.23,0,0,0,351.25,84.5Z"/><path class="cls-31" d="M352.77,84.59c0,.52-.63,1-1.4,1s-1.4-.43-1.4-1,.63-1,1.4-1S352.77,84.06,352.77,84.59Z"/><path class="cls-32" d="M353.19,47.73c.39-2.75,1.22-4.27,5.82-4.4,2.94-.08,4.44,2.88,3.82,5.59-.89,3.93-2.72,5.23-5.64,4.89S352.8,50.48,353.19,47.73Z"/><path class="cls-29" d="M356.85,47.47c1.92,1.19,2.79,4.08,1.42,5.87s-4.47,1.82-6.39.63a3.63,3.63,0,0,1-1-5.4A4.6,4.6,0,0,1,356.85,47.47Z"/><path class="cls-32" d="M335.67,63.44s-15.47-6.11-.88-16.27C352.24,35,361.5,54.9,360.86,60c-1.18,9.28-9.49,3.31-9.49,3.31Z"/><path class="cls-6" d="M333.56,61.77c.64,4.72,5,16.3,12.76,15.18,10.86-1.56,6.09-17.25,6.09-17.25s-7.19-4.5-13.74-4.44C333.32,55.3,333.29,59.79,333.56,61.77Z"/><path class="cls-6" d="M354.76,59.19c0,1.51-.27,3.06-1.74,3.32-1.26.22-2.09-3.5-1.46-4.52C352.81,56,354.74,57.13,354.76,59.19Z"/><path class="cls-6" d="M306.56,99.16c.52,1.13.63,2.08-3.42,2.93-3.26.68-4.72,2.89-5.72,2.21-1.64-1.09,1.88-5.49,3.47-6.1C304.49,96.82,306.08,98.12,306.56,99.16Z"/><path class="cls-33" d="M346.08,121.29c-16.17-1.54-35.71-12.61-40.17-15.19-2.89-1.67-1.16-8.13-.12-7.87,1.81.46,25,9,42.14,15.07C353.91,115.41,350.21,121.68,346.08,121.29Z"/><path class="cls-33" d="M368,76.66c3.67,1.28,5.11,5.31,3.43,9.14-5.78,13.14-16.46,28.62-21.79,34.2-3,3.19-9,0-7.66-4s6.23-16.53,14.77-33.69C359.57,76.59,364.94,75.6,368,76.66Z"/><path class="cls-34" d="M124.4,104.53v0c.59-1.59.25-3.51-.67-5.62-1.3-3-6.1-3.1-8.94-1.22s-3.94,5.89-1.35,8a13,13,0,0,0,2.65,1.75h0a13.78,13.78,0,0,0,7.11,1.5c2.28-.1,1.27,3,1.27,3s2.31-2.9.52-4.31S124,105.53,124.4,104.53Z"/><path class="cls-35" d="M114,99.17c-1-.24-1.06-1.27-3.5-1.86s-4.32.43-4.62-1.65c-.2-1.44,1.45-.56,1.82-1.74s-3.58-3.26-.59-5.24,4,1.49,4.66,1.6,3.11-1.55,3.78.2-3.67,4.27.06,7.12C116.5,98.25,114.6,99.31,114,99.17Z"/><path class="cls-36" d="M113.28,98.76a1.74,1.74,0,0,0,.74.41c.58.14,2.48-.91,1.61-1.58-3.74-2.84.6-5.35-.06-7.11s-3.06-.09-3.78-.2-1.53-3.07-4-2a3.44,3.44,0,0,1,1.08.64c1.67,1.39.69,4.67,2,4.59s1.13-1.33,1.81-1.38-.55,2.63.6,4S115,97.84,114.5,98s-1.47-1.54-2.24-1.4S114,98.39,113.28,98.76Z"/><path class="cls-37" d="M124.4,104.51c.59-1.6.25-3.51-.67-5.62s-3.47-2.75-5.91-2.36a5.48,5.48,0,0,1,3.12,2.21c2.06,3-.34,4.43-.28,5.87s.89,2.9-.36,3.12a10.53,10.53,0,0,1-3.63,0,14.11,14.11,0,0,0,6.54,1.22c2.28-.1,1.28,3,1.28,3s2.31-2.9.52-4.31-1-2.14-.61-3.15Z"/><path class="cls-38" d="M116.56,101c0,.25-.73.76-1.7.93s-1.75-.08-1.81-.33.66,0,1.63-.13S116.5,100.71,116.56,101Z"/><path class="cls-38" d="M119,101.7c.14.22-.7,1.08-1.86,1.68s-2.23.73-2.37.51.84-.28,2-.88S118.82,101.47,119,101.7Z"/><path class="cls-7" d="M129.75,99.12a4.6,4.6,0,0,0-4.26-1.34c-3.29.42-4.74,8.9-1.5,10,1.64.56,1.57.94,3,1.4,2.18.71,9.36-3.07,8.25-6.74S129.75,99.12,129.75,99.12Z"/><path class="cls-39" d="M133.87,100.35a2.59,2.59,0,0,1,.27,2.71c-1.21,2.49-5.4,4.72-8,3.45s-3.5-2.26-3.78-4.34c-.47,2.42-.07,5,1.64,5.62s1.57.94,3,1.4c2.17.71,9.36-3.07,8.25-6.74A4.27,4.27,0,0,0,133.87,100.35Z"/><path class="cls-39" d="M132.3,99.48a7,7,0,0,0-2.55-.35A3.74,3.74,0,0,0,128.14,98c-.16,0,.6.48.76.79s-.9.32-.48.78,1.39.08,1.63.24,1.25.93,1.61.51-.51-.68-.28-.82A2.31,2.31,0,0,1,132.3,99.48Z"/><path class="cls-40" d="M126.1,99.61c-1.16,0-1.85,1.23-2.13.75s.16-1.56,1.19-2a2.23,2.23,0,0,1,2.53.29C128,99.09,127.3,99.56,126.1,99.61Z"/><path class="cls-41" d="M129.91,99.2s-1.87.41-3.22-2.62a4.44,4.44,0,0,1,.43-4.9s3.83,1.73,4.8,3.7S129.91,99.2,129.91,99.2Z"/><path class="cls-42" d="M130,99.15c.43-.28,2.81-2,1.93-3.77-1-2-4.79-3.7-4.79-3.7S130.51,95.48,130,99.15Z"/><path class="cls-1" d="M129.91,99.2a5,5,0,0,1,1.44-2c1.13-1,1.7-1,1.7-1a2,2,0,0,1-.36,1c-.37.53-.57-.07-1.89,1.08A10.21,10.21,0,0,0,129.91,99.2Z"/><path class="cls-43" d="M145.65,100.22s1.89-3.73,1.81-5.21-2.66-5.52-1.47-6.38.71-1,1.38-2.28,1.38-1.86,2.39-1.22.76-2.64,2.79-.12.88,2.66,2.07,4.19-.12,3.94-.12,3.94a43.32,43.32,0,0,0-4.74,5.11,10.33,10.33,0,0,1-2.95,3Z"/><path class="cls-36" d="M152.07,84.47c.74,1.28-.13,1.86.28,3.16s1.23,2.72.44,3.69-1.51-2.11-2.27-1.44.9,2.79.1,3.48-1.07-2-1.65-1.83.71,1.6.51,3.44a5.34,5.34,0,0,1-1.88,3.18l1,1.51a16.4,16.4,0,0,0,1.14-1.41,43.32,43.32,0,0,1,4.74-5.11s1.32-2.4.12-3.94,0-1.67-2.07-4.19A4.63,4.63,0,0,0,152.07,84.47Z"/><path class="cls-44" d="M148.39,97.56c-2.32-1.12-5.08-.55-9,6.06s-7.5,16.78-5.18,17.89,9.69-7.23,13.6-13.84S150.72,98.68,148.39,97.56Z"/><path class="cls-29" d="M136.09,115.3c.8.17,1.36.64,1.32.83s-.69,0-1.49-.16-1.47-.25-1.42-.44S135.28,115.14,136.09,115.3Z"/><path class="cls-29" d="M139.87,112.65c.79.47,1.06,1.35.86,1.63s-.8-.16-1.59-.63-1.47-.79-1.27-1.06A1.9,1.9,0,0,1,139.87,112.65Z"/><path class="cls-29" d="M138.68,108.38c.66.14,1.07.72,1,1s-.58.1-1.24,0-1.2-.19-1.13-.45S138,108.25,138.68,108.38Z"/><path class="cls-29" d="M144.11,107.24c.91.54,1.34,1.39,1.17,1.62s-.87-.26-1.78-.79-1.67-.93-1.51-1.15S143.2,106.7,144.11,107.24Z"/><path class="cls-29" d="M141.05,102.74c.53.11.86.6.8.82s-.47.08-1,0-1-.15-.91-.37A1,1,0,0,1,141.05,102.74Z"/><path class="cls-29" d="M147.75,102.54c.75.71,1,1.62.75,1.81s-.79-.42-1.54-1.12-1.41-1.23-1.19-1.42S147,101.84,147.75,102.54Z"/><path class="cls-36" d="M147.82,107.67c3.92-6.62,2.9-9,.57-10.11a4,4,0,0,0-2.55-.39c.32.31,1.15.74,2,1.38,1.23,1,.83,2.6-2.58,9.83-2.64,5.59-7.84,11-10.07,13.17C138.12,120.83,144.34,113.56,147.82,107.67Z"/><path class="cls-2" d="M156.71,107.35H107.18L113.66,128a3.33,3.33,0,0,0,3.23,2.2H147a3.34,3.34,0,0,0,3.24-2.2Z"/><path class="cls-45" d="M132,128.1a1.56,1.56,0,0,1-1.63-1.46V111a1.64,1.64,0,0,1,3.26,0v15.69A1.56,1.56,0,0,1,132,128.1Z"/><path class="cls-45" d="M138.56,128a1.52,1.52,0,0,1-1.43-1.63l2-15.57a1.59,1.59,0,0,1,1.8-1.29,1.5,1.5,0,0,1,1.43,1.63l-2,15.57A1.6,1.6,0,0,1,138.56,128Z"/><path class="cls-45" d="M125.33,128a1.51,1.51,0,0,0,1.43-1.63l-2-15.57a1.6,1.6,0,0,0-1.81-1.29,1.51,1.51,0,0,0-1.43,1.63l2,15.57A1.59,1.59,0,0,0,125.33,128Z"/><path class="cls-45" d="M145.43,127.87a1.46,1.46,0,0,1-1.23-1.75l3.84-15.3a1.63,1.63,0,0,1,1.94-1.1,1.46,1.46,0,0,1,1.23,1.75l-3.83,15.3A1.64,1.64,0,0,1,145.43,127.87Z"/><path class="cls-45" d="M118.46,127.87a1.46,1.46,0,0,0,1.23-1.75l-3.83-15.3a1.64,1.64,0,0,0-2-1.1,1.46,1.46,0,0,0-1.23,1.75l3.83,15.3A1.65,1.65,0,0,0,118.46,127.87Z"/><path class="cls-46" d="M157.18,107.85H106.71a.79.79,0,0,1-.83-.75v-2.43a.79.79,0,0,1,.83-.75h50.47a.8.8,0,0,1,.84.75v2.43A.8.8,0,0,1,157.18,107.85Z"/><path class="cls-45" d="M111.54,108.15h-4.82a.32.32,0,0,1-.33-.3.31.31,0,0,1,.33-.29h4.82a.31.31,0,0,1,.33.29A.32.32,0,0,1,111.54,108.15Z"/><path class="cls-45" d="M154.39,108.15H114.11a.32.32,0,0,1-.33-.3.31.31,0,0,1,.33-.29h40.28a.31.31,0,0,1,.32.29A.32.32,0,0,1,154.39,108.15Z"/><path class="cls-45" d="M113.44,127.62a.32.32,0,0,1-.31-.21L107,107.93a.29.29,0,0,1,.22-.36.34.34,0,0,1,.41.21l6.1,19.47a.29.29,0,0,1-.23.36Z"/><path class="cls-47" d="M131.22,89.87a1.4,1.4,0,0,0-1.81.39l-10.36,15.18a1.12,1.12,0,0,0,.43,1.63,1.39,1.39,0,0,0,1.8-.39L131.65,91.5A1.12,1.12,0,0,0,131.22,89.87Z"/><path class="cls-47" d="M132.68,89.87a1.4,1.4,0,0,1,1.81.39l10.36,15.18a1.12,1.12,0,0,1-.43,1.63,1.39,1.39,0,0,1-1.8-.39L132.25,91.5A1.12,1.12,0,0,1,132.68,89.87Z"/><path class="cls-2" d="M35.65,209.21l3.54-42.14,15.52.55L68.89,166l5.37,43.24Z"/><path class="cls-48" d="M64.53,177.1l-.45-.92a6.62,6.62,0,0,1-.56-4.19l.56-2.83-2.66-.42-2.66-.43-.56,2.83a7,7,0,0,1-2.13,3.76l-.77.73a5.84,5.84,0,0,0-1.77,3.11l-5.31,26.92a1.6,1.6,0,0,0,1.42,1.82l4,.64,4,.65a1.75,1.75,0,0,0,2-1.28L65,180.58A5.51,5.51,0,0,0,64.53,177.1Z"/><path class="cls-49" d="M64.34,171.27l-6.63-1.06L58,169a2.37,2.37,0,0,1,2.74-1.72l2,.32a2.16,2.16,0,0,1,1.91,2.46Z"/><path class="cls-49" d="M61.94,184.29,55,183.18,52.72,195l6.9,1.1Z"/><path class="cls-50" d="M105.86,193.21H59.39v16h46.47Z"/><path class="cls-51" d="M100.26,174.39h-32V193.2h32Z"/><path class="cls-43" d="M99.89,187s4.6-.85,5.92-1.81,3.47-5.35,5-5,1.33-.06,2.95-.36,2.55-.1,2.57,1,2.91-1,1.82,2-1.93,2.27-2.62,4.09-3.71,2.3-3.71,2.3a52.93,52.93,0,0,0-7.59-.44,12.58,12.58,0,0,1-4.55-.39Z"/><path class="cls-36" d="M118.32,182.21c-.73,1.34-1.79,1-2.73,2.13s-1.77,2.57-3.15,2.57,1-2.42,0-2.57-2,2.36-3.15,2.18,1.17-2,.69-2.34-1.05,1.5-2.87,2.47a6.89,6.89,0,0,1-4.07.52l-.78,1.68c.57,0,1.23,0,2,0a52.93,52.93,0,0,1,7.59.44s3-.47,3.7-2.3,1.53-1,2.62-4.09A3.8,3.8,0,0,0,118.32,182.21Z"/><path class="cls-44" d="M104,187.4c-.39-2.41-2.58-4.13-11.06-3.05s-20,4.57-19.65,7,12.56,2.86,21,1.77S104.4,189.82,104,187.4Z"/><path class="cls-29" d="M80.17,189c.33.7.24,1.41,0,1.49s-.43-.5-.76-1.21S78.8,188,79,187.91,79.84,188.26,80.17,189Z"/><path class="cls-29" d="M84.92,190.19a1.61,1.61,0,0,1-1,1.63c-.38,0-.34-.7-.39-1.57s-.17-1.58.21-1.6S84.87,189.31,84.92,190.19Z"/><path class="cls-29" d="M88.13,186.71a1.07,1.07,0,0,1-.29,1.34c-.28.11-.44-.38-.72-1s-.55-1-.27-1.13A1.31,1.31,0,0,1,88.13,186.71Z"/><path class="cls-29" d="M92.48,190.07c.06,1-.47,1.84-.78,1.86s-.29-.81-.35-1.81-.16-1.81.15-1.83S92.43,189.07,92.48,190.07Z"/><path class="cls-29" d="M94.77,185.05a.87.87,0,0,1-.26,1.1c-.24.09-.37-.31-.59-.77s-.45-.81-.21-.91A1.06,1.06,0,0,1,94.77,185.05Z"/><path class="cls-29" d="M99,190c-.19,1-.92,1.7-1.22,1.65s-.09-.84.1-1.83.28-1.8.58-1.76S99.22,189,99,190Z"/><path class="cls-36" d="M94.35,193.11c8.47-1.08,10.05-3.29,9.67-5.71a3.25,3.25,0,0,0-1.2-2.14c-.08.43,0,1.3-.08,2.3-.16,1.52-1.89,2.2-10.64,4-6.76,1.43-14.91.81-18.26.46C76.3,193.83,86.79,194.08,94.35,193.11Z"/><path class="cls-43" d="M96.86,174.6s4.06-2,5-3.11,1.74-4.72,3.26-5,1.22-.45,2.65-1.17,2.36-.88,2.71-.11,2.42-1.63,2.27.79-1.17,2.14-1.29,3.6-2.82,2.73-2.82,2.73a69.38,69.38,0,0,0-7.22,2.12,17.3,17.3,0,0,1-4.37,1.19Z"/><path class="cls-36" d="M112.76,165.52c-.31,1.14-1.38,1.27-2,2.31s-.92,2.3-2.21,2.74.28-2-.78-1.72-1.23,2.24-2.33,2.48.54-1.72,0-1.8-.56,1.34-2,2.58a8.89,8.89,0,0,1-3.66,1.65l-.25,1.38c.54-.16,1.16-.37,1.87-.64a71,71,0,0,1,7.22-2.11s2.69-1.28,2.82-2.74,1.14-1.19,1.29-3.6A2.94,2.94,0,0,0,112.76,165.52Z"/><path class="cls-44" d="M100.85,173.59c-1-1.52-3.59-2-11.21,1.45s-17.45,9.46-16.4,11,12.56-2.06,20.18-5.5S101.89,175.1,100.85,173.59Z"/><path class="cls-29" d="M79,182.23c.51.37.63.88.46,1s-.54-.21-1-.58-1-.64-.8-.75A1.7,1.7,0,0,1,79,182.23Z"/><path class="cls-29" d="M83.77,181.55a1.1,1.1,0,0,1-.45,1.41c-.35.13-.51-.36-.81-.94s-.6-1-.25-1.14A1.45,1.45,0,0,1,83.77,181.55Z"/><path class="cls-29" d="M85.79,178.17a.64.64,0,0,1,.11,1c-.23.16-.52-.11-.94-.41s-.81-.51-.58-.67A1.52,1.52,0,0,1,85.79,178.17Z"/><path class="cls-29" d="M90.82,179.06c.33.66.08,1.4-.21,1.51s-.5-.45-.84-1.11-.67-1.18-.38-1.29A1.57,1.57,0,0,1,90.82,179.06Z"/><path class="cls-29" d="M91.54,174.93a.54.54,0,0,1,.06.83c-.19.14-.43-.09-.77-.33s-.65-.41-.46-.55A1.31,1.31,0,0,1,91.54,174.93Z"/><path class="cls-29" d="M96.9,176.89a1.5,1.5,0,0,1-.67,1.51c-.3.07-.32-.54-.43-1.27s-.25-1.31.06-1.37S96.79,176.16,96.9,176.89Z"/><path class="cls-36" d="M93.42,180.53c7.63-3.44,8.47-5.43,7.43-6.94a2.54,2.54,0,0,0-1.73-1.07c0,.32.39.88.58,1.59.28,1.07-1.15,2.08-8.81,6.11-5.92,3.12-13.71,5.29-17,6.12C76.75,186.76,86.63,183.58,93.42,180.53Z"/><path class="cls-43" d="M96.63,181.48s5.05-1.65,6.32-2.84,2.63-5.89,4.46-5.79,1.51-.29,3.28-.87,2.9-.55,3.22.58,3.06-1.54,2.59,1.67-1.64,2.58-2,4.51-3.66,2.93-3.66,2.93a70.38,70.38,0,0,0-8.81.9,17,17,0,0,1-5.32.42Z"/><path class="cls-36" d="M116.55,173.51c-.5,1.46-1.79,1.34-2.59,2.6s-1.38,2.85-3,3.09.57-2.57-.7-2.54-1.73,2.7-3.06,2.72.84-2.17.19-2.43-.82,1.66-2.66,3a8.73,8.73,0,0,1-4.53,1.23l-.47,1.8c.66-.07,1.42-.18,2.29-.35a70.38,70.38,0,0,1,8.81-.9s3.34-1,3.67-2.93,1.49-1.3,2-4.51A4.05,4.05,0,0,0,116.55,173.51Z"/><path class="cls-44" d="M101.47,181.18c-1-2.32-4-3.63-13.44-1.06s-21.8,8.06-20.75,10.39,15.11.6,24.56-2S102.52,183.51,101.47,181.18Z"/><path class="cls-29" d="M74.54,187c.56.63.63,1.35.42,1.46s-.62-.42-1.18-1.06-1.06-1.12-.85-1.23S74,186.31,74.54,187Z"/><path class="cls-29" d="M80.28,187.32a1.44,1.44,0,0,1-.7,1.78c-.43.08-.56-.63-.84-1.48s-.59-1.53-.16-1.62A2,2,0,0,1,80.28,187.32Z"/><path class="cls-29" d="M83.09,183.3a1,1,0,0,1,0,1.38c-.29.16-.6-.29-1.06-.81s-.89-.9-.6-1.06A1.76,1.76,0,0,1,83.09,183.3Z"/><path class="cls-29" d="M88.93,185.86c.32,1-.08,1.9-.43,2s-.54-.74-.86-1.72-.65-1.76-.29-1.83S88.61,184.88,88.93,185.86Z"/><path class="cls-29" d="M90.29,180.5a.77.77,0,0,1,0,1.12c-.25.14-.5-.23-.87-.65s-.72-.73-.48-.86A1.46,1.46,0,0,1,90.29,180.5Z"/><path class="cls-29" d="M96.39,184.58c0,1-.61,1.84-1,1.85s-.32-.82-.35-1.83-.14-1.83.23-1.84S96.36,183.57,96.39,184.58Z"/><path class="cls-36" d="M91.83,188.54c9.44-2.58,10.69-5,9.64-7.35a3.67,3.67,0,0,0-1.91-1.91c0,.44.35,1.28.49,2.3.2,1.52-1.62,2.5-11.18,5.86-7.38,2.6-16.87,3.44-20.8,3.69C71.34,192.45,83.42,190.83,91.83,188.54Z"/><path class="cls-52" d="M88.46,199.69c-1.5,1.94-4.1,1.09-6.8-.6s-4.5-3.6-3-5.55,4.75-1.9,7.63-.45C89.51,194.71,90,197.74,88.46,199.69Z"/><path class="cls-53" d="M83.16,193.29c-.06.13-.34.15-.61,0s-.44-.31-.37-.44.34-.15.61,0S83.23,193.16,83.16,193.29Z"/><path class="cls-53" d="M86.08,193.89c-.07.09-.32,0-.57-.12s-.39-.35-.32-.44.33,0,.58.11S86.16,193.79,86.08,193.89Z"/><path class="cls-53" d="M85.25,195.75c-.08.17-.43.19-.77.05s-.56-.39-.48-.56.43-.19.78-.05S85.34,195.59,85.25,195.75Z"/><path class="cls-53" d="M88.29,197c-.15.1-.45-.06-.67-.34s-.28-.59-.14-.68.45.05.67.34S88.44,196.93,88.29,197Z"/><path class="cls-53" d="M83.29,197.08c-.08.17-.43.19-.77,0s-.56-.39-.48-.56.43-.19.78,0S83.38,196.91,83.29,197.08Z"/><path class="cls-53" d="M80.76,194.33c-.08.08-.3,0-.5-.11s-.3-.33-.22-.42.3,0,.5.11S80.83,194.24,80.76,194.33Z"/><path class="cls-54" d="M89.28,197a2.34,2.34,0,0,1-3.42,1.12c-1.11-.61-2.13.34-4.94-.87a5,5,0,0,1-2.75-2.68c-.36,1.59,1.25,3.13,3.49,4.54,2.7,1.69,5.3,2.54,6.81.6A3.91,3.91,0,0,0,89.28,197Z"/><path class="cls-52" d="M80.62,195.91c1,3.1-2.26,4.82-6.57,5.91s-8.06,1.14-9-2,1.88-6.12,6-7.59C75.73,190.63,79.65,192.81,80.62,195.91Z"/><path class="cls-53" d="M68.6,195.4c.09.18-.12.45-.49.62s-.73.15-.83,0,.12-.45.48-.61S68.5,195.23,68.6,195.4Z"/><path class="cls-53" d="M71.81,193.16c0,.14-.24.34-.63.44s-.75.06-.79-.08.23-.35.62-.45S71.76,193,71.81,193.16Z"/><path class="cls-53" d="M73.27,195.55c.12.22-.16.57-.62.78s-.93.19-1.06,0,.16-.57.62-.78S73.14,195.32,73.27,195.55Z"/><path class="cls-53" d="M77.36,193.78c0,.23-.46.38-1,.34s-.93-.24-.91-.46.46-.38,1-.34S77.38,193.56,77.36,193.78Z"/><path class="cls-53" d="M73.13,198.55c.12.22-.16.57-.62.77s-.94.19-1.06,0,.15-.57.61-.78S73,198.32,73.13,198.55Z"/><path class="cls-53" d="M67.73,198.57c0,.15-.21.31-.55.38s-.65,0-.68-.16.22-.31.56-.37S67.7,198.43,67.73,198.57Z"/><path class="cls-54" d="M78.17,192.81c1.37,1.86,0,3.67-1.65,4.19s-1.44,2.31-5.26,3.92a7.82,7.82,0,0,1-5.5.28c1.54,1.72,4.72,1.53,8.29.62,4.31-1.09,7.54-2.81,6.57-5.91A5.76,5.76,0,0,0,78.17,192.81Z"/><path class="cls-52" d="M75.56,189.81c.81,2.61-1.91,4.06-5.54,5s-6.79,1-7.6-1.65,1.58-5.16,5.09-6.4C71.43,185.36,74.74,187.2,75.56,189.81Z"/><path class="cls-53" d="M65.43,189.38c.09.15-.1.38-.4.52s-.62.12-.71,0,.1-.37.41-.51S65.35,189.23,65.43,189.38Z"/><path class="cls-53" d="M68.14,187.49c0,.12-.2.29-.53.37s-.63,0-.67-.07.2-.29.53-.37S68.1,187.37,68.14,187.49Z"/><path class="cls-53" d="M69.37,189.51c.1.18-.13.48-.52.65s-.79.16-.9,0,.13-.49.52-.66S69.26,189.32,69.37,189.51Z"/><path class="cls-53" d="M72.81,188c0,.19-.39.32-.82.29s-.79-.2-.77-.39.38-.31.82-.29S72.82,187.83,72.81,188Z"/><path class="cls-53" d="M69.24,192c.11.18-.13.48-.52.65s-.78.16-.89,0,.13-.48.52-.66S69.14,191.84,69.24,192Z"/><path class="cls-53" d="M64.71,192.05c0,.12-.19.26-.47.31s-.54,0-.57-.12.18-.26.47-.32S64.68,191.93,64.71,192.05Z"/><path class="cls-54" d="M73.49,187.2c1.15,1.56,0,3.08-1.38,3.52s-1.21,1.95-4.44,3.3a6.53,6.53,0,0,1-4.62.24c1.3,1.45,4,1.29,7,.53,3.62-.92,6.35-2.37,5.53-5A4.84,4.84,0,0,0,73.49,187.2Z"/><path class="cls-52" d="M64.42,194c2.25,1.67,1,4.17-1.35,6.7s-4.8,4.14-7,2.47-1.9-4.89.12-7.61A6,6,0,0,1,64.42,194Z"/><path class="cls-53" d="M56.11,198.7c.15.07.15.35,0,.61s-.41.41-.57.33-.15-.35,0-.61S56,198.62,56.11,198.7Z"/><path class="cls-53" d="M57.1,195.85c.11.08,0,.33-.19.56s-.47.35-.58.27,0-.33.19-.56S57,195.77,57.1,195.85Z"/><path class="cls-53" d="M59.31,196.85c.2.09.2.44,0,.77s-.52.52-.72.43-.2-.45,0-.78S59.11,196.74,59.31,196.85Z"/><path class="cls-53" d="M61.14,194c.1.15-.11.44-.48.64s-.75.22-.85.06.11-.44.48-.63S61,193.79,61.14,194Z"/><path class="cls-53" d="M60.76,198.91c.2.1.19.45,0,.78s-.53.52-.72.42-.2-.44,0-.78S60.56,198.81,60.76,198.91Z"/><path class="cls-53" d="M57.17,201.18c.09.09,0,.3-.18.49s-.44.26-.53.18,0-.3.18-.49S57.07,201.1,57.17,201.18Z"/><path class="cls-54" d="M61.18,193a2.14,2.14,0,0,1,1.06,3.49c-.85,1.05.23,2.15-1.5,4.83a5.74,5.74,0,0,1-3.54,2.48c1.92.5,3.95-.95,5.87-3,2.32-2.53,3.6-5,1.35-6.7A5.52,5.52,0,0,0,61.18,193Z"/><path class="cls-52" d="M89.72,205.65c-.32,3.21-4,3.78-8.48,3.42s-8-1.51-7.67-4.72,4.17-5.12,8.65-5.16C87.22,199.15,90,202.44,89.72,205.65Z"/><path class="cls-53" d="M78.68,201.33c0,.19-.29.38-.7.41s-.75-.09-.77-.29.29-.38.7-.41S78.66,201.13,78.68,201.33Z"/><path class="cls-53" d="M82.56,200.26c0,.15-.35.25-.76.21s-.72-.18-.7-.33.35-.25.76-.22S82.58,200.1,82.56,200.26Z"/><path class="cls-53" d="M83,203c0,.25-.37.49-.88.53s-.95-.12-1-.37.37-.48.88-.53S83,202.71,83,203Z"/><path class="cls-53" d="M87.5,202.62c-.1.2-.57.2-1,0s-.77-.52-.67-.72.57-.21,1,0S87.61,202.41,87.5,202.62Z"/><path class="cls-53" d="M81.67,205.71c0,.25-.37.49-.89.53s-1-.12-1-.37.37-.48.88-.52S81.64,205.46,81.67,205.71Z"/><path class="cls-53" d="M76.62,204c0,.14-.33.22-.67.17s-.6-.21-.57-.36.33-.22.67-.17S76.65,203.87,76.62,204Z"/><path class="cls-54" d="M88.64,202c.55,2.18-1.43,3.44-3.18,3.4s-2.26,1.7-6.47,2a7.54,7.54,0,0,1-5.25-1.5c.76,2.1,3.81,2.94,7.5,3.23,4.46.36,8.16-.21,8.47-3.42A5.23,5.23,0,0,0,88.64,202Z"/><path class="cls-52" d="M75.74,205.35c-.32,3.21-4,3.78-8.48,3.42s-8-1.51-7.67-4.72,4.17-5.12,8.65-5.16C73.24,198.84,76.05,202.14,75.74,205.35Z"/><path class="cls-53" d="M64.7,201c0,.2-.29.38-.7.41s-.75-.09-.77-.29.29-.38.7-.41S64.68,200.83,64.7,201Z"/><path class="cls-53" d="M68.59,200c0,.15-.36.25-.76.22s-.72-.18-.71-.33.35-.25.76-.22S68.6,199.8,68.59,200Z"/><path class="cls-53" d="M69,202.66c0,.25-.37.49-.89.53s-1-.12-1-.37.37-.48.88-.53S69,202.41,69,202.66Z"/><path class="cls-53" d="M73.52,202.32c-.1.2-.57.2-1,0s-.77-.52-.67-.72.57-.21,1,0S73.63,202.11,73.52,202.32Z"/><path class="cls-53" d="M67.69,205.41c0,.25-.37.49-.89.53s-1-.12-1-.37.36-.48.88-.52S67.66,205.16,67.69,205.41Z"/><path class="cls-53" d="M62.64,203.71c0,.15-.33.23-.67.17s-.6-.21-.57-.35.33-.23.67-.18S62.67,203.57,62.64,203.71Z"/><path class="cls-54" d="M74.67,201.66c.55,2.18-1.43,3.44-3.19,3.39s-2.26,1.71-6.47,2a7.61,7.61,0,0,1-5.25-1.5c.77,2.1,3.82,2.94,7.5,3.23,4.46.36,8.16-.21,8.48-3.42A5.28,5.28,0,0,0,74.67,201.66Z"/><path class="cls-55" d="M54.14,201.9c.44,2.21,1.16,4.17,7.46,6s9.41,1.28,13.1,1.05,11.9,1.94,14.81-1.15,1.45-11.68-1.62-14-7.59-4.72-8.19-5.86,2.47-3.48,2.4-4-1.93-1.24-5-1-3.13-.87-5.93-.1-1.18,2.36-3.49,3.19-3.92,1.39-6,3.68-4.93,2.8-6.47,5.8S53.82,200.31,54.14,201.9Z"/><path class="cls-37" d="M87.89,193.79c-.81-.61-1.72-1.23-2.64-1.83,0,0,3.66,2.9,3.86,5.89s-1,1.76-2.74,2.88-1.72,5.14-5.41,5-3.62-2.85-7.73-2.57-2.81,3.56-10,2.61S54,199.82,54,199.63a7.73,7.73,0,0,0,.17,2.26c.45,2.22,1.17,4.18,7.46,6s9.41,1.29,13.11,1.06,11.89,1.94,14.8-1.15S91,196.09,87.89,193.79Z"/><path class="cls-38" d="M57.32,196.35c-.44-.77.21-1.58,2.19-2.87a14.39,14.39,0,0,0,4-3.68c1.52-1.79,3.3-2.94,4.63-3s-1.74,1.16-2.45,3.18-1.61,3.11-3.55,5.44S57.89,197.32,57.32,196.35Z"/><path class="cls-56" d="M38.4,172.08l-2-4.66-2.32.61-2.32.61,1.08,4.91a3.21,3.21,0,0,1-.22,2l-.82,1.83a3.38,3.38,0,0,0-.15,2.46l9.1,28.05a2.06,2.06,0,0,0,2.54,1.19l3.79-1,3.79-1a1.81,1.81,0,0,0,1.43-2.24l-9.09-28a3.85,3.85,0,0,0-1.6-2L39.8,173.7A3.7,3.7,0,0,1,38.4,172.08Z"/><path class="cls-57" d="M36.9,172l-1.71-4.28-1.42.37-1.42.37,1.13,4.44a3.84,3.84,0,0,1,.05,1.81l-.36,1.56a4.09,4.09,0,0,0,.13,2.18l8.3,25.6a1.59,1.59,0,0,0,1.72,1.24l2.32-.61,2.32-.61a1.4,1.4,0,0,0,.71-1.88l-8.31-25.6a4.46,4.46,0,0,0-1.19-1.9l-1.24-1.14A4.26,4.26,0,0,1,36.9,172Z"/><path class="cls-58" d="M35.08,164.23l-4.15,1.1a.74.74,0,0,0-.57.93l.7,2.16,5.76-1.52-.71-2.16A.85.85,0,0,0,35.08,164.23Z"/><path class="cls-59" d="M48.24,203.77,43.47,205a1.24,1.24,0,0,1-1.5-.73l-7.13-22a1.06,1.06,0,0,1,.81-1.34l4.77-1.26a1.23,1.23,0,0,1,1.49.74l7.14,22A1.07,1.07,0,0,1,48.24,203.77Z"/><path class="cls-60" d="M39.81,173.7a3.66,3.66,0,0,1-1.41-1.62l-2-4.66-2.32.61-2.32.61.26,1.19c.93-.15,3-.45,3.34-.18s1.64,4.71,3.52,6,9.18,25.5,9.42,26.4-.55,2.51-4.91,3.59a13.45,13.45,0,0,1-3.22.49l.58,1.79a2.06,2.06,0,0,0,2.54,1.19l3.79-1,3.79-1a1.8,1.8,0,0,0,1.43-2.23l-9.1-28.05a3.75,3.75,0,0,0-1.59-2Z"/><path class="cls-55" d="M39.05,189.43c2.36,7.27,4.28,13.16,3.78,13.29s-2.51-5.74-4.87-13-4.16-13.19-3.67-13.32S36.7,182.15,39.05,189.43Z"/><path class="cls-56" d="M36.76,168.21l-4.87,1.27a.46.46,0,0,1-.57-.28l-.13-.38a.42.42,0,0,1,.32-.52L36.37,167a.48.48,0,0,1,.58.29l.12.38A.42.42,0,0,1,36.76,168.21Z"/><path class="cls-58" d="M39.2,190.52c-.71-.31-1-1-.73-1.48a1.48,1.48,0,0,1,1.83-.35c.71.31,1,1,.73,1.47A1.48,1.48,0,0,1,39.2,190.52Z"/><path class="cls-36" d="M38.66,189.6c-.17-.08-.19-.33,0-.56s.39-.37.56-.29.2.32.06.56A.53.53,0,0,1,38.66,189.6Z"/><path class="cls-61" d="M39.42,184.85c1.27,1.11,2,2.28,1.78,2.45s-1.53-.47-2.8-1.58a7,7,0,0,1-1.79-2.45A8,8,0,0,1,39.42,184.85Z"/><path class="cls-62" d="M36.62,183.27s3.55,3,4.61,4c.1-.25-.6-1.36-1.8-2.42A8.19,8.19,0,0,0,36.62,183.27Z"/><path class="cls-61" d="M41.2,184.4c.44,1.24.38,2.37.13,2.44s-1-.81-1.49-2.05a4.62,4.62,0,0,1-.13-2.44A5,5,0,0,1,41.2,184.4Z"/><path class="cls-62" d="M39.71,182.36s1.33,3.36,1.65,4.47a3.2,3.2,0,0,0-.16-2.42A4.8,4.8,0,0,0,39.71,182.36Z"/><path class="cls-61" d="M42.4,190.72c0,1.58-.4,2.88-.68,2.88s-.72-1.26-.74-2.84a6.68,6.68,0,0,1,.69-2.89A6.22,6.22,0,0,1,42.4,190.72Z"/><path class="cls-62" d="M41.67,187.87s.15,4.33.09,5.72a4.55,4.55,0,0,0,.64-2.87A6.22,6.22,0,0,0,41.67,187.87Z"/><path class="cls-61" d="M43.61,192.32c-.66,1.19-1.6,2-1.84,1.89s-.1-1.22.57-2.41a5.9,5.9,0,0,1,1.84-1.89A4.47,4.47,0,0,1,43.61,192.32Z"/><path class="cls-62" d="M44.18,189.91s-1.73,3.29-2.37,4.3c.29,0,1.16-.76,1.8-1.89A4.47,4.47,0,0,0,44.18,189.91Z"/><path class="cls-61" d="M42.93,198.69c1.08.9,1.64,1.9,1.45,2.07s-1.37-.27-2.44-1.17a4.88,4.88,0,0,1-1.45-2.06A5.87,5.87,0,0,1,42.93,198.69Z"/><path class="cls-62" d="M40.49,197.53s3,2.37,3.91,3.2c.12-.24-.44-1.18-1.47-2A5.87,5.87,0,0,0,40.49,197.53Z"/><path class="cls-61" d="M40.89,192.25c.87,1.05,1.22,2.12,1,2.26S40.6,194,39.73,193a4.73,4.73,0,0,1-1-2.27A5.53,5.53,0,0,1,40.89,192.25Z"/><path class="cls-62" d="M38.73,190.72s2.48,2.81,3.19,3.77c.15-.22-.2-1.24-1-2.24A5.53,5.53,0,0,0,38.73,190.72Z"/><path class="cls-58" d="M42.72,186.3a1.06,1.06,0,0,1,.26,1.6,1.48,1.48,0,0,1-1.86-.07,1.05,1.05,0,0,1-.27-1.6A1.49,1.49,0,0,1,42.72,186.3Z"/><path class="cls-36" d="M43,187.32c.14.11.09.35-.12.55a.52.52,0,0,1-.62.15c-.14-.11-.09-.35.11-.55S42.82,187.2,43,187.32Z"/><path class="cls-58" d="M41.32,196c-.78-.14-1.3-.7-1.16-1.25a1.42,1.42,0,0,1,1.68-.75c.78.13,1.3.7,1.15,1.25A1.42,1.42,0,0,1,41.32,196Z"/><path class="cls-36" d="M40.52,195.23c-.18,0-.28-.27-.22-.52s.28-.44.46-.41.29.27.22.52S40.71,195.26,40.52,195.23Z"/><path class="cls-58" d="M44.38,199a1.47,1.47,0,0,1,1.87.06c.38.45.15,1.15-.5,1.57a1.47,1.47,0,0,1-1.86-.06C43.51,200.12,43.73,199.42,44.38,199Z"/><path class="cls-36" d="M45.58,199a.52.52,0,0,1,.61.2c.17.21.18.46,0,.56a.51.51,0,0,1-.6-.2C45.44,199.32,45.43,199.07,45.58,199Z"/><path class="cls-58" d="M44.06,201.6A1.2,1.2,0,0,1,43,203a1.23,1.23,0,0,1-1.32-1.12,1.2,1.2,0,0,1,1-1.37A1.22,1.22,0,0,1,44.06,201.6Z"/><path class="cls-36" d="M43.47,202.51c0,.17-.21.33-.51.36s-.56-.07-.58-.24.21-.32.51-.36S43.45,202.35,43.47,202.51Z"/><path class="cls-2" d="M7.45,130a3.44,3.44,0,0,0-3.1-3.87,3.72,3.72,0,0,0-4.3,2.79,3.44,3.44,0,0,0,3.1,3.88A3.74,3.74,0,0,0,7.45,130Z"/><path class="cls-63" d="M36.09,212.71a1.25,1.25,0,0,1-1.31-1.17V156.2a1.31,1.31,0,0,1,2.61,0v55.34A1.24,1.24,0,0,1,36.09,212.71Z"/><path class="cls-63" d="M50,212.71a1.24,1.24,0,0,1-1.3-1.17V156.2a1.31,1.31,0,0,1,2.61,0v55.34A1.26,1.26,0,0,1,50,212.71Z"/><path class="cls-63" d="M64,212.71a1.24,1.24,0,0,1-1.3-1.17V156.2a1.31,1.31,0,0,1,2.61,0v55.34A1.25,1.25,0,0,1,64,212.71Z"/><path class="cls-63" d="M78,212.71a1.25,1.25,0,0,1-1.31-1.17V156.2a1.31,1.31,0,0,1,2.61,0v55.34A1.24,1.24,0,0,1,78,212.71Z"/><path class="cls-63" d="M91.91,212.71a1.25,1.25,0,0,1-1.31-1.17V156.2a1.31,1.31,0,0,1,2.61,0v55.34A1.25,1.25,0,0,1,91.91,212.71Z"/><path class="cls-63" d="M105.86,212.71a1.25,1.25,0,0,1-1.31-1.17V156.2a1.31,1.31,0,0,1,2.61,0v55.34A1.24,1.24,0,0,1,105.86,212.71Z"/><path class="cls-64" d="M100.49,260.9c4.14-.6,7-4.12,6.28-7.85s-4.58-6.27-8.72-5.67-7,4.13-6.29,7.86S96.34,261.51,100.49,260.9Z"/><path class="cls-65" d="M102.35,257a3.69,3.69,0,0,0,0-5.61,4.74,4.74,0,0,0-6.22,0,3.69,3.69,0,0,0,0,5.61A4.74,4.74,0,0,0,102.35,257Z"/><path class="cls-65" d="M94.33,246.17H108.5v-1.48H94.33Z"/><path class="cls-66" d="M99.26,256.42a2.57,2.57,0,0,0,2.14-1.08l6.22-9.17h-11l.11,8A2.39,2.39,0,0,0,99.26,256.42Z"/><path class="cls-67" d="M99.26,256.71a2.71,2.71,0,0,1-2.83-2.51.31.31,0,0,1,.32-.3h0a.3.3,0,0,1,.32.29,2.1,2.1,0,0,0,2.18,1.94,2.26,2.26,0,0,0,1.86-.94l6.22-9.17a.34.34,0,0,1,.44-.1.28.28,0,0,1,.11.41l-6.21,9.16A2.92,2.92,0,0,1,99.26,256.71Z"/><path class="cls-67" d="M108.5,246.46H94.33a.29.29,0,1,1,0-.58H108.5a.31.31,0,0,1,.33.29A.32.32,0,0,1,108.5,246.46Z"/><path class="cls-64" d="M40.13,260.9c4.15-.6,7-4.12,6.29-7.85s-4.58-6.27-8.73-5.67-7,4.13-6.28,7.86S36,261.51,40.13,260.9Z"/><path class="cls-65" d="M42,257a3.69,3.69,0,0,0,0-5.61,4.74,4.74,0,0,0-6.22,0,3.69,3.69,0,0,0,0,5.61A4.74,4.74,0,0,0,42,257Z"/><path class="cls-65" d="M34,246.17H48.15v-1.48H34Z"/><path class="cls-66" d="M38.91,256.42a2.59,2.59,0,0,0,2.14-1.08l6.21-9.17h-11l.11,8A2.38,2.38,0,0,0,38.91,256.42Z"/><path class="cls-67" d="M38.91,256.71a2.71,2.71,0,0,1-2.83-2.51.31.31,0,0,1,.32-.3h0a.31.31,0,0,1,.33.29,2.09,2.09,0,0,0,2.18,1.94,2.27,2.27,0,0,0,1.86-.94L47,246a.36.36,0,0,1,.45-.1.28.28,0,0,1,.11.41l-6.22,9.16A2.88,2.88,0,0,1,38.91,256.71Z"/><path class="cls-67" d="M48.15,246.46H34a.29.29,0,1,1,0-.58H48.15a.29.29,0,1,1,0,.58Z"/><path class="cls-66" d="M113.74,244.69H32.18a2.48,2.48,0,0,1-2.59-2.33V211.54a2.47,2.47,0,0,1,2.59-2.33H106.7l20.74-50.68H24.36a2.34,2.34,0,1,1,0-4.66H131.15a2.67,2.67,0,0,1,2.12,1,2.14,2.14,0,0,1,.31,2.14l-22.65,55.35a2.61,2.61,0,0,1-2.43,1.52H34.76V240h79a2.34,2.34,0,1,1,0,4.66Z"/><path class="cls-66" d="M32.17,213.87a2.51,2.51,0,0,1-2.56-2l-7.75-54.77L1.64,130.79a2.19,2.19,0,0,1,.65-3.25,2.77,2.77,0,0,1,3.6.59l20.59,26.74a2.11,2.11,0,0,1,.44,1l7.82,55.34a2.39,2.39,0,0,1-2.24,2.61Z"/><path class="cls-68" d="M106.7,209.79H86a.59.59,0,1,1,0-1.17h20.27l20.27-49.5H47.33a.59.59,0,1,1,0-1.18h80.11a.66.66,0,0,1,.53.25.51.51,0,0,1,.08.54l-20.74,50.68A.66.66,0,0,1,106.7,209.79Z"/><path class="cls-68" d="M30.57,182.29a.63.63,0,0,1-.65-.51L26.65,158.6a.53.53,0,0,1,.15-.46.68.68,0,0,1,.49-.2H40.11a.59.59,0,1,1,0,1.18H28l3.18,22.51a.6.6,0,0,1-.56.65Z"/><path class="cls-69" d="M24.79,154.88a.34.34,0,0,1-.27-.13L9.34,135a.28.28,0,0,1,.09-.41.35.35,0,0,1,.45.08l15.17,19.71a.26.26,0,0,1-.08.4A.3.3,0,0,1,24.79,154.88Z"/><path class="cls-69" d="M7.54,132.48a.36.36,0,0,1-.27-.12L4.67,129a.27.27,0,0,1,.08-.41.34.34,0,0,1,.45.08L7.81,132a.28.28,0,0,1-.08.41A.34.34,0,0,1,7.54,132.48Z"/><path class="cls-70" d="M108.91,240.61h-54a.59.59,0,1,1,0-1.17h54.05a.59.59,0,1,1,0,1.17Z"/><path class="cls-70" d="M46.29,240.61H38.13a.59.59,0,1,1,0-1.17h8.16a.59.59,0,1,1,0,1.17Z"/><path class="cls-1" d="M191.39,151H203.6a1,1,0,0,0,1-.7l1.08-4.7a.91.91,0,0,0-1-1.06H192.47a1,1,0,0,0-1,.7l-1.08,4.7A.91.91,0,0,0,191.39,151Z"/><path class="cls-3" d="M200,148.83c-.68,1.39-1.23,1.62-1.12,3,.16,1.79,2.58,3.22,3.21,1.62.11-.27,1.74-2.48,1.08-4.71-.14-.5-1.4-3.24-2.67-2.82C200.22,146,200.3,148.27,200,148.83Z"/><path class="cls-71" d="M194,165.36c-2.73-6.35-10.67-24.35-14.27-27.3-3.4-2.78-11.22.81-9.87,6.46,1.75,7.34,13.69,22,16.77,24.82S196,169.94,194,165.36Z"/><path class="cls-71" d="M199.45,152.51a36.44,36.44,0,0,1-10.65,9.83c-3.69,2.33,0,9.74,3.67,7.58,6.46-3.84,9.35-15.58,9.49-16.33A1.42,1.42,0,0,0,199.45,152.51Z"/><path class="cls-1" d="M192.79,261h-11.9s-.7-2.53.91-3.74c.69-.52,2.39-1.09,5.43.24C189.88,258.66,193.24,259,192.79,261Z"/><path class="cls-3" d="M183.81,254.16a4.33,4.33,0,0,1,1.82.18c-.19,1-.27,2.28-.46,3.06s-2.62.27-2.75-.34c-.19-.8-.17-1.44-.37-2.58A9.33,9.33,0,0,1,183.81,254.16Z"/><path class="cls-1" d="M182.94,258c1.34-.22,1.48-1.26,2.06-1.33s.53,0,2.91,1.1c.55.24-1,.67-2.17.67S182.43,258.09,182.94,258Z"/><path class="cls-4" d="M168.25,178.73c-.79,3.61-2.33,7.14-.39,12.45,2.22,6.08,8.43,25.67,9.71,29.54s1.65,32.45,1.55,33.3c-.21,1.72,8.09,2.26,8.57.49.24-.92,6.07-31.16,5.15-37.39-2.77-18.67-6.4-38-6.81-41C185.33,171.15,169.25,174.18,168.25,178.73Z"/><path class="cls-5" d="M163.05,171.46c2.61.62,5.49,1.19,8.55,1.66a66.56,66.56,0,0,0,12.37,1c-1.2,7.17-1.82,13.94-10.62,14-12.34.13-12.61-9.3-10.63-15.45C162.84,172.29,163,171.88,163.05,171.46Z"/><path class="cls-1" d="M170.52,261H160.16s-.61-2.53.79-3.74c.6-.52,2.28-1.34,4.93,0C168.19,258.42,170.91,259,170.52,261Z"/><path class="cls-3" d="M163.64,254.05a3.9,3.9,0,0,1,1.77.46c-.36,1-.59,1.91-.9,2.7s-2.7.35-2.73-.31c0-.87.08-1.54.08-2.78A9.44,9.44,0,0,1,163.64,254.05Z"/><path class="cls-1" d="M162.15,257.39c.67.18,1-.84,2.18-.84s.55.29,2.94,1.34c.54.24-1.73.56-2.94.56S161.57,257.23,162.15,257.39Z"/><path class="cls-5" d="M161.09,173.53c-1.91,3.31-4.5,6.34-4.34,12,.18,6.51,2.07,30.05,2.06,34.15s1.49,34.56,1.63,35.42,7.54,1.35,7.87.5,2.52-18.19,5.29-35.65c2.68-16.93,5.08-34.12,4.45-36.94C176.77,177.31,163.49,169.35,161.09,173.53Z"/><path class="cls-2" d="M171.65,133.88c2.58.71,6.85,2.1,9.56,5.92,2.91,4.1,4.25,9.27,4,18.07s2.9,19.89,1.23,20.9c-7,4.19-29.1,1.91-28.65-1.38,1.08-7.92-.33-24.49-3-31.07s3-11.44,7-12.49A18.61,18.61,0,0,1,171.65,133.88Z"/><path class="cls-72" d="M170.31,130.63s-1-1.79-4.49-1.84-7.31,6-6.2,6,5.43-1.32,7.57.48,5.46,4.65,9,3.5c1.91-.62.7-2.6.35-3.6S170.31,130.63,170.31,130.63Z"/><path class="cls-9" d="M173.93,137.4c-.49-.43-1.25.25-.76.69,1.86,1.66-.12,3.94-.43,5.79a3.19,3.19,0,0,0,1,3.07c.48.44,1.24-.24.76-.68C171.86,143.85,177,140.1,173.93,137.4Z"/><path class="cls-9" d="M178.55,141.7c-.39-1.61-.27-3.53-2.1-4.44-.61-.3-1.15.53-.54.84,1.48.73,1.29,2.57,1.61,3.86C177.66,142.57,178.7,142.31,178.55,141.7Z"/><path class="cls-72" d="M177.16,168.44c-.35,2.86-.88,6.08-4.09,7.46-.62.26-.08,1.1.54.83,3.56-1.52,4.23-5.1,4.62-8.29C178.31,167.82,177.23,167.83,177.16,168.44Z"/><path class="cls-72" d="M185.62,172.34a12.51,12.51,0,0,1-1.49-4.13c-.1-.61-1.14-.35-1,.26a13,13,0,0,0,1.6,4.36C185,173.38,185.94,172.89,185.62,172.34Z"/><path class="cls-3" d="M195.62,148.52c-1.43.92-2.11.85-2.74,2.12-.83,1.65.84,4,2.35,2.9.25-.19,3.11-1.38,3.66-3.64.11-.5.33-3.49-1.18-3.69C197.34,146.15,196.2,148.16,195.62,148.52Z"/><path class="cls-73" d="M173.84,164.57c-2.34-5.11-5.44-21.5-8.22-27.31-3.58-7.52-13.62.51-11.38,9.35,3.27,12.94,10.42,20.7,11.68,21.76C169.31,171.19,176.22,169.74,173.84,164.57Z"/><path class="cls-73" d="M192.56,152.48c-2.79,1.76-16,7.59-22.56,9.26-3.66.94-3.12,8.63,1.17,7.95,7.63-1.2,22.76-14.68,23.22-15.31A1.35,1.35,0,0,0,192.56,152.48Z"/><path class="cls-3" d="M176.76,127s-.71,3.63-.81,5c-.22,3.23,0,4.18-.83,4.39-2.67.72-6.68-3.76-6.54-4.52.63-3.31,1.87-7.47,1.87-7.47Z"/><path class="cls-1" d="M183.74,122.46a2.7,2.7,0,0,0,2.72-1.68c.8-1.89-.24-1.72.93-3s3.28-3,.73-5-5.63-.29-6.71-.54-.87-1.58-3.75-1.79-5,2.23-6.42,2.37-3.4-1.15-4.67,1.08.59,3.77-1.48,4.67.08,3.45.28,5,.64,3.6,3.83,3.2S183.74,122.46,183.74,122.46Z"/><path class="cls-6" d="M184.53,120.4s1,13.84-5.75,15.34c-3,.67-6.7-1.88-8.26-3.69a10.89,10.89,0,0,1-2.38-6.17s-2.4-.35-1.9-3.46,2.95-.71,2.95-.71-.17.93.27,1.08c1.8.59,5-2.05,6.74-3C179.56,117.89,184.53,120.4,184.53,120.4Z"/></g></g></svg>